<svg width="300" height="379" viewBox="0 0 300 379" fill="none" xmlns="http://www.w3.org/2000/svg">
<g clip-path="url(#clip0_404_2409)">
<path opacity="0.4" d="M16.1565 361.404L0 352.161L24.1743 338.326L40.3232 347.562L16.1565 361.404Z" fill="#D6D8E5"/>
<path d="M16.4893 342.774L3.10877 335.051L16.4893 327.328L29.8623 335.051L16.4893 342.774Z" fill="#D6D8E5"/>
<path d="M16.4893 358.219L3.10877 350.497V335.051L16.4893 342.774V358.219Z" fill="#B1B6C4"/>
<path d="M29.8699 350.497L16.4893 358.219V342.774L29.8699 335.051V350.497Z" fill="#C4C7D6"/>
<path d="M34.4688 345.671C35.6258 345.993 36.8634 345.844 37.9103 345.255C38.7424 345.255 43.2505 343.356 43.8631 344.975C44.4002 346.389 42.4487 347.706 41.4049 347.955C39.1357 348.507 37.4414 349.642 36.5261 349.839C36.1776 349.964 35.8037 350.001 35.4372 349.949C35.0706 349.896 34.7226 349.754 34.4234 349.536C33.7729 348.855 33.8334 346.48 34.4688 345.671Z" fill="#38226D"/>
<path d="M36.5261 349.407C37.4414 349.211 39.1281 348.076 41.4049 347.524C42.2747 347.312 43.7799 346.359 43.9312 345.217C44.1354 346.526 42.3731 347.683 41.4049 347.917C39.1357 348.47 37.4414 349.604 36.5261 349.801C36.1776 349.926 35.8037 349.964 35.4372 349.911C35.0706 349.858 34.7226 349.716 34.4234 349.498C34.2792 349.346 34.1775 349.158 34.1284 348.954C34.4649 349.211 34.8571 349.386 35.2734 349.465C35.6898 349.544 36.1188 349.524 36.5261 349.407Z" fill="#9C73FF"/>
<path d="M26.3451 341.307C27.5022 341.629 28.7398 341.479 29.7867 340.89C30.6187 340.89 35.0814 338.992 35.7319 340.611C36.269 342.025 34.3175 343.341 33.2812 343.591C31.0121 344.143 29.3177 345.278 28.4025 345.474C28.0539 345.599 27.6801 345.637 27.3135 345.584C26.947 345.531 26.5989 345.39 26.2997 345.172C25.6492 344.529 25.7173 342.154 26.3451 341.307Z" fill="#38226D"/>
<path d="M28.4025 345.081C29.3177 344.884 31.0045 343.75 33.2812 343.198C34.1511 342.986 35.6563 342.033 35.8076 340.891C36.0118 342.199 34.2494 343.356 33.2812 343.591C31.0121 344.143 29.3177 345.278 28.4025 345.474C28.0539 345.599 27.6801 345.637 27.3135 345.584C26.947 345.531 26.5989 345.39 26.2997 345.172C26.1572 345.021 26.0557 344.836 26.0047 344.635C26.3425 344.89 26.7349 345.063 27.151 345.14C27.5672 345.218 27.9956 345.197 28.4025 345.081Z" fill="#9C73FF"/>
<path d="M13.6907 335.702C17.2079 337.214 20.4982 337.487 23.2288 336.034L26.0274 334.416C26.1938 338.031 26.3527 341.503 26.3527 341.503C26.3527 341.503 28.5008 343.129 30.1346 341.677C30.1346 341.677 30.4826 336.609 30.8381 331.617L33.7729 329.923C33.7022 330.19 33.6641 330.464 33.6594 330.74C33.6594 331.685 34.3402 345.777 34.3402 345.777C34.3402 345.777 36.5035 347.063 38.1751 345.618C38.1751 345.618 39.3021 329.287 39.5593 326.708C39.8467 323.773 36.5942 322.329 34.5293 323.077L31.3827 324.25L31.534 322.435C31.829 319.5 28.5689 318.055 26.5115 318.804C24.6357 319.492 11.9586 324.242 11.9586 324.242C12.0374 325.463 12.1864 326.677 12.4048 327.881L7.39751 327.457C7.13277 332.139 10.181 334.159 13.6907 335.702ZM22.4346 327.586L25.7854 325.657C25.7295 325.893 25.6941 326.133 25.6795 326.375L22.4346 327.586Z" fill="#6889CA"/>
<path d="M4.68963 313.146C4.68963 313.146 5.09808 319.371 5.91498 320.271C6.73188 321.171 9.50028 321.784 9.50028 321.784L11.6257 325.248C11.6257 325.248 9.68181 314.144 9.25823 313.902C8.83465 313.66 4.68963 313.146 4.68963 313.146Z" fill="#FFCEA9"/>
<path d="M8.7817 306.225C8.26627 305.984 7.68077 305.94 7.13492 306.1C6.58908 306.26 6.12037 306.614 5.81665 307.095C5.06026 308.388 4.22066 312.843 4.14503 313.6C4.45941 314.024 4.87588 314.363 5.35584 314.584C5.83581 314.804 6.36374 314.901 6.89073 314.863L8.7817 306.225Z" fill="#EDEDED"/>
<path d="M9.53053 306.339C10.6046 306.391 11.4064 306.664 11.5425 306.339C11.6579 305.784 11.7387 305.224 11.7846 304.659C11.6636 304.342 11.5577 304.009 11.5577 304.009C10.2037 303.177 9.78014 301.74 9.59861 300.015C9.29605 297.103 10.8693 294.562 13.7739 294.259C16.512 293.972 18.524 295.893 19.0686 298.533C19.3561 299.834 19.9309 302.315 19.1518 304.44C18.7207 305.635 18.161 306.588 17.6391 306.77C17.0972 306.758 16.5565 306.713 16.0204 306.634C16.0204 306.634 15.8767 307.443 15.7783 307.957C15.68 308.472 15.7103 308.751 16.7465 309.387C17.7828 310.022 15.1883 311.331 13.494 311.202C11.7997 311.074 9.8936 310.052 9.37169 308.933C8.74389 307.708 8.78927 306.27 9.53053 306.339Z" fill="#FFCEA9"/>
<path d="M36.806 325.362C36.8054 325.515 36.7646 325.666 36.6876 325.799C36.6106 325.931 36.5002 326.041 36.3673 326.118L28.1605 330.853C28.0273 330.931 27.8759 330.972 27.7217 330.972C27.5676 330.972 27.4162 330.931 27.283 330.853L15.7859 324.212C15.652 324.137 15.5407 324.027 15.4635 323.894C15.3864 323.761 15.3462 323.609 15.3472 323.456V323.395L36.806 325.362Z" fill="#E5E5E5"/>
<path d="M36.3673 326.118L28.1605 330.853C28.0283 330.934 27.8764 330.975 27.7217 330.974V325.362H36.7984C36.7986 325.514 36.7589 325.665 36.6833 325.797C36.6077 325.93 36.4988 326.041 36.3673 326.118Z" fill="#E5E5E5"/>
<path d="M28.0319 330.422C27.9393 330.477 27.8334 330.507 27.7255 330.507C27.6177 330.507 27.5118 330.477 27.4192 330.422L15.4606 323.524C15.3094 323.433 15.3094 323.289 15.4606 323.206L24.265 318.116L36.806 325.362L28.0319 330.422Z" fill="#F4F4F4"/>
<path d="M20.3696 325.362L20.4301 325.392L24.265 327.608L26.3678 326.39L26.4283 326.36L22.5329 324.114L20.3696 325.362Z" fill="#BFBFBF"/>
<path d="M20.4301 325.392L24.265 327.608L26.3678 326.39L22.5329 324.182L20.4301 325.392Z" fill="#E5E5E5"/>
<path d="M33.5535 325.717L34.1057 326.035C34.1324 326.05 34.1623 326.057 34.1927 326.057C34.2231 326.057 34.253 326.05 34.2797 326.035L34.8091 325.732C34.8621 325.732 34.8696 325.657 34.8091 325.634L34.257 325.309C34.2298 325.296 34.2001 325.289 34.17 325.289C34.1399 325.289 34.1102 325.296 34.083 325.309L33.5535 325.619C33.5157 325.649 33.5081 325.695 33.5535 325.717Z" fill="#3A2C6D"/>
<path d="M32.7744 325.248L33.3266 325.566C33.3533 325.581 33.3832 325.588 33.4136 325.588C33.444 325.588 33.4739 325.581 33.5006 325.566L34.0301 325.263C34.083 325.263 34.083 325.188 34.0301 325.165L33.4779 324.847C33.4512 324.833 33.4213 324.825 33.3909 324.825C33.3605 324.825 33.3306 324.833 33.3039 324.847L32.7744 325.15C32.7366 325.195 32.7291 325.248 32.7744 325.248Z" fill="#3A2C6D"/>
<path d="M31.9878 324.817L32.54 325.135C32.5685 325.148 32.5994 325.155 32.6307 325.155C32.662 325.155 32.693 325.148 32.7215 325.135L33.2434 324.832C33.2964 324.832 33.3039 324.757 33.2434 324.726L32.6912 324.409C32.6646 324.394 32.6347 324.387 32.6043 324.387C32.5739 324.387 32.544 324.394 32.5173 324.409L31.9878 324.711C31.95 324.742 31.9424 324.787 31.9878 324.817Z" fill="#3A2C6D"/>
<path d="M31.2087 324.363L31.7609 324.681C31.7881 324.694 31.8178 324.701 31.8479 324.701C31.8779 324.701 31.9076 324.694 31.9348 324.681L32.4643 324.378C32.5173 324.378 32.5248 324.303 32.4643 324.273L31.9122 323.955C31.8836 323.942 31.8527 323.935 31.8214 323.935C31.7901 323.935 31.7591 323.942 31.7306 323.955L31.2087 324.257C31.1709 324.288 31.1633 324.333 31.2087 324.363Z" fill="#3A2C6D"/>
<path d="M30.4221 323.91L30.9818 324.227C31.0085 324.242 31.0384 324.249 31.0688 324.249C31.0992 324.249 31.1291 324.242 31.1558 324.227L31.6777 323.925C31.7306 323.925 31.7382 323.849 31.6777 323.826L31.1255 323.501C31.0983 323.488 31.0686 323.482 31.0385 323.482C31.0085 323.482 30.9787 323.488 30.9515 323.501L30.4221 323.811C30.3842 323.841 30.3767 323.887 30.4221 323.91Z" fill="#3A2C6D"/>
<path d="M29.643 323.456L30.1951 323.781C30.2224 323.794 30.2521 323.8 30.2821 323.8C30.3122 323.8 30.3419 323.794 30.3691 323.781L30.8986 323.471C30.9515 323.471 30.9591 323.395 30.8986 323.372L30.3464 323.055C30.3184 323.04 30.2873 323.033 30.2557 323.033C30.2241 323.033 30.1929 323.04 30.1649 323.055L29.643 323.357C29.6052 323.388 29.5976 323.433 29.643 323.456Z" fill="#3A2C6D"/>
<path d="M28.8639 322.979L29.4161 323.297C29.4433 323.31 29.473 323.316 29.5031 323.316C29.5331 323.316 29.5628 323.31 29.59 323.297L30.1195 322.994C30.1725 322.994 30.1725 322.919 30.1195 322.888L29.5673 322.571C29.5401 322.558 29.5104 322.551 29.4804 322.551C29.4503 322.551 29.4206 322.558 29.3934 322.571L28.8639 322.873C28.8185 322.934 28.8185 322.979 28.8639 322.979Z" fill="#3A2C6D"/>
<path d="M28.0773 322.556L28.6294 322.873C28.6561 322.888 28.686 322.895 28.7164 322.895C28.7468 322.895 28.7767 322.888 28.8034 322.873L29.3329 322.571C29.3858 322.571 29.3934 322.495 29.3329 322.472L28.7807 322.147C28.7535 322.134 28.7238 322.128 28.6937 322.128C28.6636 322.128 28.6339 322.134 28.6067 322.147L28.0773 322.457C28.0394 322.487 28.0319 322.533 28.0773 322.556Z" fill="#3A2C6D"/>
<path d="M27.2982 322.102L27.8503 322.419C27.877 322.434 27.9069 322.442 27.9373 322.442C27.9677 322.442 27.9976 322.434 28.0243 322.419L28.5538 322.117C28.6067 322.117 28.6067 322.041 28.5538 322.019L27.9865 321.693C27.9598 321.679 27.9299 321.671 27.8995 321.671C27.8691 321.671 27.8392 321.679 27.8125 321.693L27.283 321.996C27.2301 322.034 27.2301 322.079 27.2982 322.102Z" fill="#3A2C6D"/>
<path d="M26.5115 321.655L27.0637 321.973C27.0922 321.986 27.1231 321.993 27.1545 321.993C27.1858 321.993 27.2167 321.986 27.2452 321.973L27.7671 321.671C27.8201 321.671 27.8276 321.595 27.7671 321.565L27.2301 321.239C27.2034 321.225 27.1735 321.217 27.1431 321.217C27.1127 321.217 27.0828 321.225 27.0561 321.239L26.5266 321.542C26.4737 321.58 26.4737 321.625 26.5115 321.655Z" fill="#3A2C6D"/>
<path d="M25.7173 321.202L26.2695 321.519C26.2967 321.532 26.3264 321.539 26.3565 321.539C26.3865 321.539 26.4162 321.532 26.4434 321.519L26.9729 321.217C27.0259 321.217 27.0334 321.141 26.9729 321.111L26.4737 320.786C26.4452 320.773 26.4142 320.766 26.3829 320.766C26.3516 320.766 26.3207 320.773 26.2922 320.786L25.7703 321.088C25.7173 321.126 25.7173 321.171 25.7173 321.202Z" fill="#3A2C6D"/>
<path d="M24.9609 320.748L25.5207 321.065C25.5473 321.08 25.5772 321.088 25.6076 321.088C25.638 321.088 25.6679 321.08 25.6946 321.065L26.2241 320.763C26.2695 320.763 26.277 320.687 26.2241 320.665L25.6719 320.339C25.6447 320.327 25.615 320.32 25.5849 320.32C25.5549 320.32 25.5252 320.327 25.498 320.339L24.9685 320.649C24.908 320.71 24.908 320.71 24.9609 320.748Z" fill="#3A2C6D"/>
<path d="M24.2045 320.294L24.7567 320.619C24.7839 320.632 24.8136 320.639 24.8437 320.639C24.8738 320.639 24.9035 320.632 24.9307 320.619L25.4601 320.309C25.5131 320.309 25.5206 320.233 25.4601 320.211L24.908 319.893C24.8799 319.879 24.8488 319.871 24.8172 319.871C24.7856 319.871 24.7545 319.879 24.7264 319.893L24.2045 320.196C24.1289 320.226 24.1213 320.271 24.2045 320.294Z" fill="#3A2C6D"/>
<path d="M23.0094 319.628L23.9398 320.165C23.967 320.178 23.9967 320.185 24.0268 320.185C24.0568 320.185 24.0865 320.178 24.1138 320.165L24.6432 319.863C24.6962 319.863 24.6962 319.787 24.6432 319.757L23.7204 319.197C23.6932 319.184 23.6635 319.178 23.6335 319.178C23.6034 319.178 23.5737 319.184 23.5465 319.197L23.017 319.507C23.009 319.507 23.0011 319.508 22.9935 319.51C22.986 319.513 22.9791 319.517 22.9731 319.522C22.9671 319.528 22.9623 319.534 22.9588 319.541C22.9553 319.548 22.9532 319.556 22.9527 319.564C22.9522 319.572 22.9533 319.58 22.9559 319.587C22.9584 319.595 22.9625 319.602 22.9677 319.608C22.973 319.614 22.9794 319.619 22.9866 319.622C22.9937 319.626 23.0015 319.628 23.0094 319.628Z" fill="#3A2C6D"/>
<path d="M31.6323 325.483L32.192 325.801C32.2187 325.815 32.2486 325.823 32.279 325.823C32.3094 325.823 32.3393 325.815 32.366 325.801L32.8955 325.498C32.9409 325.498 32.9484 325.422 32.8955 325.4L32.3433 325.082C32.3166 325.067 32.2867 325.06 32.2563 325.06C32.2259 325.06 32.196 325.067 32.1693 325.082L31.6399 325.384C31.5945 325.415 31.5945 325.46 31.6323 325.483Z" fill="#3A2C6D"/>
<path d="M30.8532 325.029L31.4054 325.354C31.4326 325.367 31.4623 325.374 31.4924 325.374C31.5224 325.374 31.5521 325.367 31.5793 325.354L32.1088 325.044C32.1618 325.044 32.1693 324.968 32.1088 324.946L31.5567 324.628C31.5286 324.613 31.4975 324.606 31.4659 324.606C31.4343 324.606 31.4032 324.613 31.3751 324.628L30.8532 324.931C30.8154 324.961 30.8078 325.006 30.8532 325.029Z" fill="#3A2C6D"/>
<path d="M30.0666 324.583L30.6187 324.9C30.6472 324.913 30.6782 324.92 30.7095 324.92C30.7408 324.92 30.7718 324.913 30.8003 324.9L31.3222 324.598C31.3751 324.598 31.3827 324.522 31.3222 324.492L30.77 324.174C30.7428 324.161 30.7131 324.155 30.683 324.155C30.6529 324.155 30.6232 324.161 30.596 324.174L30.0666 324.477C30.0287 324.492 30.0212 324.552 30.0666 324.583Z" fill="#3A2C6D"/>
<path d="M29.2875 324.129L29.8396 324.447C29.8669 324.459 29.8966 324.466 29.9266 324.466C29.9567 324.466 29.9864 324.459 30.0136 324.447L30.5431 324.144C30.596 324.144 30.596 324.068 30.5431 324.038L29.9909 323.72C29.9637 323.708 29.934 323.701 29.9039 323.701C29.8739 323.701 29.8442 323.708 29.817 323.72L29.2875 324.023C29.2421 324.053 29.2421 324.099 29.2875 324.129Z" fill="#3A2C6D"/>
<path d="M28.5084 323.675L29.0606 324C29.0878 324.013 29.1175 324.02 29.1475 324.02C29.1776 324.02 29.2073 324.013 29.2345 324L29.764 323.69C29.817 323.69 29.8245 323.615 29.764 323.592L29.2118 323.274C29.1838 323.26 29.1527 323.252 29.1211 323.252C29.0895 323.252 29.0583 323.26 29.0303 323.274L28.5084 323.577C28.4706 323.607 28.463 323.652 28.5084 323.675Z" fill="#3A2C6D"/>
<path d="M27.7217 323.229L28.2739 323.546C28.3024 323.559 28.3334 323.566 28.3647 323.566C28.396 323.566 28.4269 323.559 28.4554 323.546L28.9774 323.244C29.0303 323.244 29.0379 323.168 28.9774 323.138L28.4252 322.82C28.398 322.808 28.3683 322.801 28.3382 322.801C28.3081 322.801 28.2784 322.808 28.2512 322.82L27.7217 323.123C27.6839 323.153 27.6764 323.198 27.7217 323.229Z" fill="#3A2C6D"/>
<path d="M26.9427 322.775L27.4948 323.093C27.522 323.105 27.5517 323.112 27.5818 323.112C27.6119 323.112 27.6416 323.105 27.6688 323.093L28.1983 322.79C28.2512 322.79 28.2512 322.714 28.1983 322.684L27.6461 322.366C27.6189 322.354 27.5892 322.347 27.5591 322.347C27.5291 322.347 27.4993 322.354 27.4721 322.366L26.9427 322.669C26.8973 322.699 26.8973 322.745 26.9427 322.775Z" fill="#3A2C6D"/>
<path d="M26.156 322.321L26.7082 322.639C26.7349 322.653 26.7648 322.661 26.7952 322.661C26.8256 322.661 26.8555 322.653 26.8822 322.639L27.4116 322.336C27.4646 322.336 27.4721 322.261 27.4116 322.238L26.8595 321.913C26.831 321.9 26.8 321.893 26.7687 321.893C26.7374 321.893 26.7064 321.9 26.6779 321.913L26.156 322.223C26.1182 322.223 26.1106 322.298 26.156 322.321Z" fill="#3A2C6D"/>
<path d="M25.3694 321.867L25.9291 322.185C25.9558 322.2 25.9857 322.207 26.0161 322.207C26.0465 322.207 26.0764 322.2 26.1031 322.185L26.6325 321.882C26.6779 321.882 26.6855 321.807 26.6325 321.784L26.0804 321.466C26.0537 321.452 26.0238 321.444 25.9934 321.444C25.963 321.444 25.9331 321.452 25.9064 321.466L25.3769 321.769C25.3316 321.799 25.3316 321.845 25.3694 321.867Z" fill="#3A2C6D"/>
<path d="M24.5903 321.413L25.1425 321.739C25.1697 321.751 25.1994 321.758 25.2294 321.758C25.2595 321.758 25.2892 321.751 25.3164 321.739L25.8459 321.429C25.8988 321.429 25.9064 321.353 25.8459 321.33L25.2937 321.013C25.2657 320.998 25.2346 320.99 25.203 320.99C25.1714 320.99 25.1402 320.998 25.1122 321.013L24.5903 321.315C24.5525 321.345 24.5449 321.391 24.5903 321.413Z" fill="#3A2C6D"/>
<path d="M23.8036 320.967L24.3558 321.285C24.3843 321.298 24.4153 321.304 24.4466 321.304C24.4779 321.304 24.5088 321.298 24.5373 321.285L25.0593 320.982C25.1122 320.982 25.1198 320.907 25.0593 320.876L24.5071 320.559C24.4799 320.546 24.4502 320.539 24.4201 320.539C24.39 320.539 24.3603 320.546 24.3331 320.559L23.8036 320.861C23.7658 320.892 23.7583 320.937 23.8036 320.967Z" fill="#3A2C6D"/>
<path d="M23.0246 320.513L23.5767 320.831C23.6039 320.844 23.6336 320.85 23.6637 320.85C23.6938 320.85 23.7235 320.844 23.7507 320.831L24.2802 320.528C24.3331 320.528 24.3331 320.453 24.2802 320.423L23.728 320.105C23.7008 320.092 23.6711 320.085 23.641 320.085C23.6109 320.085 23.5812 320.092 23.554 320.105L23.0246 320.407C22.9792 320.438 22.9792 320.483 23.0246 320.513Z" fill="#3A2C6D"/>
<path d="M32.4189 325.937L33.3493 326.474C33.3765 326.486 33.4062 326.493 33.4363 326.493C33.4664 326.493 33.4961 326.486 33.5233 326.474L34.0527 326.171C34.1057 326.171 34.1133 326.095 34.0527 326.065L33.1224 325.528C33.0939 325.515 33.0629 325.509 33.0316 325.509C33.0003 325.509 32.9694 325.515 32.9409 325.528L32.4189 325.838C32.3811 325.869 32.3736 325.914 32.4189 325.937Z" fill="#3A2C6D"/>
<path d="M22.9565 319.651L23.5086 319.969C23.554 319.969 23.554 320.037 23.5086 320.067L22.9489 320.385C22.925 320.399 22.8975 320.407 22.8695 320.407C22.8414 320.407 22.8139 320.399 22.7901 320.385H22.7447C22.7211 320.373 22.6952 320.367 22.6691 320.367C22.6429 320.367 22.617 320.373 22.5934 320.385L22.0034 320.725C21.9771 320.736 21.9488 320.742 21.9202 320.742C21.8916 320.742 21.8633 320.736 21.837 320.725L21.4891 320.521C21.4437 320.521 21.4437 320.453 21.4891 320.423L22.0412 320.105L22.1547 320.044L22.2379 319.991L22.3211 319.946L22.7901 319.674C22.8133 319.656 22.841 319.644 22.8702 319.64C22.8994 319.636 22.9292 319.64 22.9565 319.651Z" fill="#3A2C6D"/>
<path d="M30.5204 327.465L31.0726 327.782C31.0992 327.797 31.1291 327.804 31.1595 327.804C31.1899 327.804 31.2199 327.797 31.2465 327.782L31.776 327.48C31.829 327.48 31.829 327.404 31.776 327.381L31.2238 327.064C31.1972 327.049 31.1673 327.041 31.1369 327.041C31.1065 327.041 31.0765 327.049 31.0499 327.064L30.5204 327.366C30.4826 327.396 30.475 327.442 30.5204 327.465Z" fill="#3A2C6D"/>
<path d="M29.7413 327.018L30.2935 327.336C30.3207 327.349 30.3504 327.355 30.3805 327.355C30.4105 327.355 30.4402 327.349 30.4675 327.336L30.9969 327.033C31.0499 327.033 31.0499 326.958 30.9969 326.928L30.4448 326.61C30.4176 326.597 30.3878 326.59 30.3578 326.59C30.3277 326.59 30.298 326.597 30.2708 326.61L29.7413 326.912C29.6959 326.943 29.6959 326.988 29.7413 327.018Z" fill="#3A2C6D"/>
<path d="M28.9547 326.564L29.5144 326.882C29.5411 326.897 29.571 326.904 29.6014 326.904C29.6318 326.904 29.6617 326.897 29.6884 326.882L30.2178 326.58C30.2632 326.58 30.2708 326.504 30.2178 326.481L29.6657 326.164C29.639 326.149 29.6091 326.141 29.5787 326.141C29.5483 326.141 29.5184 326.149 29.4917 326.164L28.9622 326.474C28.9168 326.496 28.9168 326.542 28.9547 326.564Z" fill="#3A2C6D"/>
<path d="M22.3135 322.73L22.8657 323.047C22.8937 323.062 22.9249 323.069 22.9565 323.069C22.9881 323.069 23.0192 323.062 23.0472 323.047L23.5692 322.745C23.6221 322.745 23.6297 322.669 23.5692 322.646L23.017 322.321C22.9898 322.308 22.9601 322.302 22.93 322.302C22.8999 322.302 22.8702 322.308 22.843 322.321L22.3135 322.631C22.2757 322.661 22.2682 322.707 22.3135 322.73Z" fill="#3A2C6D"/>
<path d="M21.5345 322.283L22.0866 322.601C22.1138 322.614 22.1435 322.62 22.1736 322.62C22.2037 322.62 22.2334 322.614 22.2606 322.601L22.7901 322.291C22.843 322.291 22.8506 322.223 22.7901 322.193L22.2379 321.875C22.2099 321.86 22.1787 321.853 22.1471 321.853C22.1155 321.853 22.0844 321.86 22.0564 321.875L21.5345 322.177C21.4966 322.223 21.4891 322.223 21.5345 322.283Z" fill="#3A2C6D"/>
<path d="M20.7554 321.829L21.3075 322.147C21.3342 322.162 21.3641 322.169 21.3945 322.169C21.4249 322.169 21.4548 322.162 21.4815 322.147L22.011 321.845C22.0639 321.845 22.0715 321.769 22.011 321.746L21.4588 321.421C21.4303 321.408 21.3994 321.401 21.3681 321.401C21.3367 321.401 21.3058 321.408 21.2773 321.421L20.7554 321.731C20.7176 321.761 20.71 321.807 20.7554 321.829Z" fill="#3A2C6D"/>
<path d="M19.9763 321.376L20.5285 321.701C20.5557 321.714 20.5854 321.72 20.6154 321.72C20.6455 321.72 20.6752 321.714 20.7024 321.701L21.2319 321.391C21.2849 321.391 21.2849 321.315 21.2319 321.292L20.6722 320.975C20.6455 320.96 20.6156 320.953 20.5852 320.953C20.5548 320.953 20.5249 320.96 20.4982 320.975L19.9687 321.277C19.9385 321.308 19.9309 321.353 19.9763 321.376Z" fill="#3A2C6D"/>
<path d="M27.9865 326.005L28.7429 326.443C28.7714 326.456 28.8023 326.463 28.8336 326.463C28.865 326.463 28.8959 326.456 28.9244 326.443L29.4463 326.141C29.4993 326.141 29.5068 326.065 29.4463 326.035L28.6899 325.604C28.6633 325.589 28.6333 325.582 28.6029 325.582C28.5725 325.582 28.5426 325.589 28.516 325.604L27.9865 325.906C27.9411 325.929 27.9335 326.005 27.9865 326.005Z" fill="#3A2C6D"/>
<path d="M23.0926 323.183L23.849 323.615C23.8757 323.629 23.9056 323.637 23.936 323.637C23.9664 323.637 23.9963 323.629 24.023 323.615L24.5525 323.312C24.6054 323.312 24.613 323.236 24.5525 323.206L23.7961 322.775C23.7689 322.762 23.7392 322.755 23.7091 322.755C23.679 322.755 23.6493 322.762 23.6221 322.775L23.0926 323.077C23.0548 323.108 23.0472 323.153 23.0926 323.183Z" fill="#3A2C6D"/>
<path d="M24.0759 323.736L27.752 325.861C27.7792 325.874 27.8089 325.88 27.839 325.88C27.8691 325.88 27.8988 325.874 27.926 325.861L28.4554 325.558C28.5084 325.558 28.5084 325.483 28.4554 325.453L24.7869 323.335C24.7589 323.32 24.7278 323.312 24.6962 323.312C24.6646 323.312 24.6334 323.32 24.6054 323.335L24.0835 323.637C24.0381 323.675 24.0306 323.736 24.0759 323.736Z" fill="#3A2C6D"/>
<path d="M30.6641 325.801L31.2163 326.118C31.243 326.133 31.2729 326.14 31.3033 326.14C31.3337 326.14 31.3636 326.133 31.3902 326.118L31.9197 325.816C31.9727 325.816 31.9802 325.74 31.9197 325.71L31.3676 325.392C31.3391 325.379 31.3081 325.372 31.2768 325.372C31.2455 325.372 31.2145 325.379 31.186 325.392L30.6641 325.695C30.6263 325.725 30.6187 325.77 30.6641 325.801Z" fill="#3A2C6D"/>
<path d="M29.885 325.347L30.4372 325.664C30.4639 325.679 30.4938 325.687 30.5242 325.687C30.5546 325.687 30.5845 325.679 30.6112 325.664L31.1406 325.362C31.1936 325.362 31.1936 325.286 31.1406 325.263L30.5885 324.946C30.5618 324.931 30.5319 324.924 30.5015 324.924C30.4711 324.924 30.4412 324.931 30.4145 324.946L29.885 325.248C29.8472 325.248 29.8396 325.324 29.885 325.347Z" fill="#3A2C6D"/>
<path d="M29.0984 324.9L29.6581 325.218C29.6853 325.231 29.715 325.238 29.7451 325.238C29.7752 325.238 29.8049 325.231 29.8321 325.218L30.3616 324.916C30.4069 324.916 30.4145 324.84 30.3616 324.81L29.8094 324.492C29.7822 324.479 29.7525 324.472 29.7224 324.472C29.6923 324.472 29.6626 324.479 29.6354 324.492L29.1059 324.794C29.0606 324.825 29.0606 324.87 29.0984 324.9Z" fill="#3A2C6D"/>
<path d="M28.3193 324.447L28.8715 324.764C28.8981 324.779 28.9281 324.786 28.9584 324.786C28.9888 324.786 29.0188 324.779 29.0454 324.764L29.5749 324.462C29.6279 324.462 29.6354 324.386 29.5749 324.356L29.0227 324.038C28.9955 324.025 28.9658 324.019 28.9358 324.019C28.9057 324.019 28.876 324.025 28.8488 324.038L28.3193 324.348C28.2815 324.378 28.2739 324.424 28.3193 324.447Z" fill="#3A2C6D"/>
<path d="M27.5402 323.993L28.0924 324.31C28.1191 324.325 28.149 324.333 28.1794 324.333C28.2098 324.333 28.2397 324.325 28.2663 324.31L28.7958 324C28.8488 324 28.8563 323.925 28.7958 323.902L28.2437 323.584C28.2156 323.57 28.1845 323.562 28.1529 323.562C28.1213 323.562 28.0902 323.57 28.0621 323.584L27.5402 323.887C27.5024 323.925 27.4948 323.97 27.5402 323.993Z" fill="#3A2C6D"/>
<path d="M26.7611 323.546L27.3133 323.864C27.3405 323.877 27.3702 323.884 27.4003 323.884C27.4304 323.884 27.4601 323.877 27.4873 323.864L28.0167 323.562C28.0621 323.562 28.0697 323.486 28.0167 323.456L27.4646 323.138C27.4374 323.125 27.4077 323.119 27.3776 323.119C27.3475 323.119 27.3178 323.125 27.2906 323.138L26.7611 323.441C26.7158 323.471 26.7158 323.516 26.7611 323.546Z" fill="#3A2C6D"/>
<path d="M25.9745 323.093L26.5266 323.41C26.5547 323.425 26.5858 323.432 26.6174 323.432C26.649 323.432 26.6802 323.425 26.7082 323.41L27.2301 323.108C27.283 323.108 27.2906 323.032 27.2301 323.009L26.6779 322.684C26.6507 322.671 26.621 322.665 26.5909 322.665C26.5609 322.665 26.5312 322.671 26.504 322.684L25.9745 322.994C25.9367 323.025 25.9291 323.07 25.9745 323.093Z" fill="#3A2C6D"/>
<path d="M25.1954 322.639L25.7173 322.979C25.7445 322.992 25.7742 322.999 25.8043 322.999C25.8344 322.999 25.8641 322.992 25.8913 322.979L26.4208 322.669C26.4737 322.669 26.4813 322.593 26.4208 322.571L25.8686 322.253C25.8406 322.238 25.8094 322.231 25.7778 322.231C25.7462 322.231 25.7151 322.238 25.6871 322.253L25.1651 322.556C25.1576 322.571 25.15 322.616 25.1954 322.639Z" fill="#3A2C6D"/>
<path d="M24.4163 322.223L24.9685 322.54C24.9957 322.553 25.0254 322.56 25.0555 322.56C25.0855 322.56 25.1152 322.553 25.1425 322.54L25.6719 322.238C25.7249 322.238 25.7249 322.162 25.6719 322.132L25.1198 321.814C25.0926 321.801 25.0629 321.795 25.0328 321.795C25.0027 321.795 24.973 321.801 24.9458 321.814L24.4163 322.117C24.3709 322.117 24.3709 322.162 24.4163 322.223Z" fill="#3A2C6D"/>
<path d="M23.6297 321.739L24.1818 322.056C24.2099 322.071 24.241 322.079 24.2726 322.079C24.3042 322.079 24.3353 322.071 24.3634 322.056L24.8853 321.754C24.9382 321.754 24.9458 321.678 24.8853 321.655L24.3331 321.33C24.3059 321.317 24.2762 321.311 24.2461 321.311C24.2161 321.311 24.1864 321.317 24.1591 321.33L23.6297 321.64C23.5918 321.671 23.5843 321.716 23.6297 321.739Z" fill="#3A2C6D"/>
<path d="M22.8506 321.285L23.4028 321.61C23.43 321.623 23.4597 321.63 23.4897 321.63C23.5198 321.63 23.5495 321.623 23.5767 321.61L24.1062 321.3C24.1591 321.3 24.1667 321.224 24.1062 321.202L23.554 320.884C23.526 320.869 23.4949 320.862 23.4633 320.862C23.4317 320.862 23.4005 320.869 23.3725 320.884L22.8506 321.187C22.8128 321.217 22.8052 321.262 22.8506 321.285Z" fill="#3A2C6D"/>
<path d="M22.0715 320.839L22.6237 321.156C22.6509 321.169 22.6806 321.176 22.7107 321.176C22.7407 321.176 22.7704 321.169 22.7976 321.156L23.3271 320.854C23.3801 320.854 23.3801 320.778 23.3271 320.748L22.7749 320.43C22.7477 320.417 22.718 320.411 22.688 320.411C22.6579 320.411 22.6282 320.417 22.601 320.43L22.0715 320.733C22.0261 320.763 22.0261 320.808 22.0715 320.839Z" fill="#3A2C6D"/>
<path d="M31.4432 326.254L32.5929 326.912C32.6201 326.925 32.6498 326.932 32.6799 326.932C32.71 326.932 32.7397 326.925 32.7669 326.912L33.2888 326.61C33.3417 326.61 33.3493 326.534 33.2888 326.504L32.1466 325.846C32.12 325.831 32.09 325.824 32.0596 325.824C32.0293 325.824 31.9993 325.831 31.9727 325.846L31.4432 326.148C31.4054 326.179 31.3978 326.224 31.4432 326.254Z" fill="#3A2C6D"/>
<path d="M30.2935 326.459L30.8456 326.784C30.8729 326.797 30.9026 326.803 30.9326 326.803C30.9627 326.803 30.9924 326.797 31.0196 326.784L31.5491 326.474C31.602 326.474 31.6096 326.398 31.5491 326.375L30.9969 326.058C30.9702 326.043 30.9403 326.035 30.9099 326.035C30.8795 326.035 30.8496 326.043 30.823 326.058L30.2935 326.36C30.2557 326.39 30.2557 326.436 30.2935 326.459Z" fill="#3A2C6D"/>
<path d="M29.4993 326.005L30.0514 326.322C30.0786 326.335 30.1083 326.342 30.1384 326.342C30.1685 326.342 30.1982 326.335 30.2254 326.322L30.7549 326.02C30.8078 326.02 30.8154 325.944 30.7549 325.914L30.1951 325.596C30.1679 325.583 30.1382 325.577 30.1082 325.577C30.0781 325.577 30.0484 325.583 30.0212 325.596L29.4993 325.899C29.4993 325.937 29.4993 326.005 29.4993 326.005Z" fill="#3A2C6D"/>
<path d="M28.7429 325.558L29.295 325.876C29.3217 325.891 29.3516 325.898 29.382 325.898C29.4124 325.898 29.4423 325.891 29.469 325.876L29.9985 325.574C30.0439 325.574 30.0514 325.498 29.9985 325.475L29.4463 325.15C29.4191 325.137 29.3894 325.131 29.3593 325.131C29.3293 325.131 29.2996 325.137 29.2724 325.15L28.7429 325.46C28.6899 325.49 28.6899 325.536 28.7429 325.558Z" fill="#3A2C6D"/>
<path d="M27.9865 325.105L28.5386 325.43C28.5672 325.443 28.5981 325.45 28.6294 325.45C28.6607 325.45 28.6917 325.443 28.7202 325.43L29.2421 325.12C29.295 325.12 29.3026 325.044 29.2421 325.021L28.6899 324.704C28.6632 324.689 28.6333 324.682 28.6029 324.682C28.5725 324.682 28.5426 324.689 28.516 324.704L27.9865 325.006C27.9108 325.037 27.9033 325.082 27.9865 325.105Z" fill="#3A2C6D"/>
<path d="M27.1696 324.658L27.7217 324.976C27.749 324.989 27.7787 324.995 27.8087 324.995C27.8388 324.995 27.8685 324.989 27.8957 324.976L28.4252 324.673C28.4781 324.673 28.4857 324.598 28.4252 324.568L27.873 324.25C27.8445 324.237 27.8136 324.23 27.7823 324.23C27.7509 324.23 27.72 324.237 27.6915 324.25L27.1696 324.552C27.1318 324.583 27.1242 324.628 27.1696 324.658Z" fill="#3A2C6D"/>
<path d="M26.3905 324.204L26.9427 324.522C26.9693 324.537 26.9993 324.544 27.0297 324.544C27.06 324.544 27.09 324.537 27.1166 324.522L27.6461 324.22C27.6991 324.22 27.6991 324.144 27.6461 324.121L27.0939 323.804C27.0673 323.789 27.0374 323.781 27.007 323.781C26.9766 323.781 26.9467 323.789 26.92 323.804L26.3905 324.106C26.3451 324.136 26.3451 324.182 26.3905 324.204Z" fill="#3A2C6D"/>
<path d="M25.6039 323.736L26.156 324.053C26.1845 324.066 26.2155 324.073 26.2468 324.073C26.2781 324.073 26.309 324.066 26.3376 324.053L26.8595 323.751C26.9124 323.751 26.92 323.675 26.8595 323.645L26.3073 323.327C26.2806 323.313 26.2507 323.305 26.2203 323.305C26.1899 323.305 26.16 323.313 26.1333 323.327L25.6039 323.63C25.566 323.683 25.5585 323.736 25.6039 323.736Z" fill="#3A2C6D"/>
<path d="M24.8248 323.304L25.3769 323.622C25.4036 323.637 25.4335 323.644 25.4639 323.644C25.4943 323.644 25.5242 323.637 25.5509 323.622L26.0804 323.32C26.1333 323.32 26.1409 323.244 26.0804 323.214L25.5282 322.896C25.4997 322.883 25.4688 322.876 25.4374 322.876C25.4061 322.876 25.3752 322.883 25.3467 322.896L24.8248 323.206C24.7869 323.229 24.7794 323.274 24.8248 323.304Z" fill="#3A2C6D"/>
<path d="M24.0457 322.851L24.5979 323.168C24.6249 323.182 24.6547 323.189 24.6848 323.189C24.715 323.189 24.7448 323.182 24.7718 323.168L25.3013 322.858C25.3542 322.858 25.3542 322.782 25.3013 322.76L24.7416 322.442C24.7149 322.428 24.685 322.42 24.6546 322.42C24.6242 322.42 24.5943 322.428 24.5676 322.442L24.0381 322.745C24.0079 322.782 24.0003 322.828 24.0457 322.851Z" fill="#3A2C6D"/>
<path d="M23.2666 322.404L23.8188 322.722C23.846 322.735 23.8757 322.741 23.9058 322.741C23.9358 322.741 23.9655 322.735 23.9927 322.722L24.5222 322.419C24.5676 322.419 24.5752 322.344 24.5222 322.314L23.97 321.996C23.9428 321.983 23.9131 321.976 23.8831 321.976C23.853 321.976 23.8233 321.983 23.7961 321.996L23.2666 322.298C23.2212 322.329 23.2212 322.374 23.2666 322.404Z" fill="#3A2C6D"/>
<path d="M22.48 321.95L23.0321 322.268C23.0602 322.283 23.0913 322.29 23.1229 322.29C23.1545 322.29 23.1856 322.283 23.2137 322.268L23.7356 321.966C23.7885 321.966 23.7961 321.89 23.7356 321.867L23.1834 321.542C23.1562 321.529 23.1265 321.523 23.0964 321.523C23.0663 321.523 23.0366 321.529 23.0094 321.542L22.48 321.852C22.4421 321.882 22.4346 321.928 22.48 321.95Z" fill="#3A2C6D"/>
<path d="M20.7327 320.944L22.2455 321.822C22.2727 321.835 22.3024 321.841 22.3325 321.841C22.3625 321.841 22.3922 321.835 22.4194 321.822L22.9489 321.512C23.0019 321.512 23.0094 321.436 22.9489 321.413L21.4361 320.536C21.4081 320.521 21.377 320.514 21.3454 320.514C21.3138 320.514 21.2826 320.521 21.2546 320.536L20.7327 320.839C20.6949 320.869 20.6873 320.914 20.7327 320.944Z" fill="#3A2C6D"/>
<path d="M31.0726 326.912L31.829 327.351C31.8562 327.364 31.8859 327.371 31.9159 327.371C31.946 327.371 31.9757 327.364 32.0029 327.351L32.5324 327.041C32.5853 327.041 32.5929 326.965 32.5324 326.943L31.776 326.504C31.7488 326.491 31.7191 326.484 31.689 326.484C31.6589 326.484 31.6292 326.491 31.602 326.504L31.0726 326.814C31.0121 326.844 31.0121 326.89 31.0726 326.912Z" fill="#3A2C6D"/>
<path d="M36.8064 325.362L24.2655 318.116V308.282L24.3638 308.056L24.4621 308.01C24.5939 307.932 24.7441 307.891 24.8971 307.891C25.0501 307.891 25.2003 307.932 25.332 308.01L36.8064 314.629C36.9374 314.707 37.0459 314.818 37.1215 314.95C37.197 315.083 37.237 315.232 37.2376 315.385V324.643C37.1544 325.089 37.0636 325.203 36.8064 325.362Z" fill="#E5E5E5"/>
<path d="M35.6567 315.801L24.2655 308.608V308.282L24.3638 308.056L24.4621 308.01C24.5939 307.932 24.7441 307.891 24.8971 307.891C25.0501 307.891 25.2003 307.932 25.332 308.01L36.8065 314.629C36.9476 314.709 37.061 314.83 37.1317 314.977L35.6567 315.801Z" fill="#E5E5E5"/>
<path d="M24.5525 308.033L36.5942 314.984C36.6576 315.021 36.7103 315.075 36.7474 315.138C36.7844 315.202 36.8046 315.274 36.806 315.347V325.362L24.265 318.116V308.199C24.2642 308.165 24.2724 308.132 24.289 308.102C24.3056 308.072 24.3299 308.048 24.3593 308.031C24.3887 308.014 24.4222 308.005 24.4562 308.005C24.4902 308.006 24.5234 308.015 24.5525 308.033Z" fill="#DCEEFF"/>
<path d="M24.5525 308.033L36.5942 314.984C36.6576 315.021 36.7103 315.075 36.7474 315.138C36.7844 315.202 36.8046 315.274 36.806 315.347V325.362L24.265 318.116V308.199C24.2642 308.165 24.2724 308.132 24.289 308.102C24.3056 308.072 24.3299 308.048 24.3593 308.031C24.3887 308.014 24.4222 308.005 24.4562 308.005C24.4902 308.006 24.5234 308.015 24.5525 308.033Z" fill="#F4F4F4"/>
<path d="M36.806 325.362V324.999L24.265 317.76V318.116L36.806 325.362Z" fill="#DBDBDB"/>
<path d="M24.5903 317.594V308.555L24.7416 308.638V317.518L24.5903 317.594Z" fill="#1E3779"/>
<path d="M24.7416 308.638V317.518L36.4051 324.227V315.37L24.7416 308.638Z" fill="#3A2C6D"/>
<path d="M24.5903 317.594L36.4051 324.409V324.227L24.7416 317.518L24.5903 317.594Z" fill="#031F60"/>
<path d="M11.0887 306.467C10.7861 307.224 11.5501 308.116 13.5697 308.736C15.5892 309.357 15.7708 308.555 15.7708 308.555C17.1178 309.158 18.4308 309.835 19.704 310.582C20.9142 311.429 21.4513 313.887 21.6177 318.032C21.8068 322.828 21.8219 329.938 21.6631 331.171C21.6631 331.171 19.3939 333.44 16.4969 333.19C13.5999 332.941 8.70607 330.384 7.52609 328.402C7.52609 324.197 8.04801 323.509 7.36725 321.088C5.80909 315.544 4.98462 313.275 5.74858 309.583C6.36882 306.558 7.26136 306.172 8.44889 306.202C9.33286 306.244 10.214 306.333 11.0887 306.467Z" fill="#F4F4F4"/>
<path d="M26.3905 323.183C24.0079 323.788 23.4481 322.283 23.138 321.043C22.3816 318.017 21.9732 315.309 21.4059 313.6C20.7403 311.588 20.0444 311.263 19.0611 310.869C17.9189 310.408 16.928 311.384 17.3062 313.948C17.7779 316.926 18.5094 319.857 19.4922 322.707C19.8401 323.99 20.5121 325.162 21.4437 326.111C22.6766 327.109 24.5298 327.064 27.3284 326.368C28.9698 325.809 30.5634 325.118 32.0937 324.303C32.6988 324.023 33.1678 323.834 34.3629 323.289C35.5468 322.772 36.5857 321.972 37.3884 320.96C37.9935 320.075 38.0767 319.659 37.9557 319.447C37.8347 319.235 37.517 319.25 37.1993 319.621C36.7299 320.247 36.1507 320.782 35.4899 321.202C35.4899 321.202 36.2463 320.445 36.6472 319.923C37.0145 319.462 37.3173 318.953 37.5473 318.411C37.7666 317.896 37.3204 317.2 36.98 317.563C36.6396 317.926 36.4883 318.32 35.8681 319.076C35.5442 319.47 35.1733 319.823 34.7638 320.128C35.1476 319.611 35.4891 319.065 35.7849 318.494C36.0503 318.035 36.1789 317.51 36.1555 316.981C36.1555 316.716 35.7546 316.399 35.3991 316.905C35.0307 317.628 34.5734 318.301 34.0376 318.91C33.493 319.477 33.0316 319.802 33.0165 319.666C33.0014 319.53 33.3493 319.197 33.5384 318.547C33.7275 317.896 33.5384 317.193 33.1753 317.117C32.8123 317.041 32.8803 317.057 32.5929 317.677C32.1891 318.308 31.8278 318.965 31.5113 319.643C31.3247 320.277 30.9873 320.856 30.528 321.33C29.9531 321.928 28.6597 322.616 26.3905 323.183Z" fill="#FFCEA9"/>
<path d="M18.1534 310.461C19.7418 310.226 20.8688 310.945 21.5723 313.35C22.2757 315.756 22.7598 317.737 22.7598 317.737C22.132 318.647 21.1789 319.28 20.0973 319.507C18.1988 319.969 17.5105 319.061 17.5105 319.061C17.5105 319.061 16.981 316.535 16.6557 314.818C16.3305 313.101 16.217 310.748 18.1534 310.461Z" fill="#EDEDED"/>
<path d="M18.9703 298.124C18.9703 298.124 21.4815 294.304 16.0355 293.525C12.1098 292.966 9.58348 295.484 9.29605 298.222C9.01619 300.84 10.6273 303.555 11.7846 304.637C12.928 304.928 14.1389 304.782 15.1808 304.228C15.2457 303.514 15.271 302.797 15.2564 302.08C15.2564 302.08 13.3427 298.056 18.9703 298.124Z" fill="#3A2C6D"/>
<path d="M29.8699 346.465V334.991L20.7554 340.308L24.265 347.562L29.8699 346.465Z" fill="#C4C7D6"/>
<path d="M23.8944 335.649L27.3889 333.622L29.8623 335.051L26.2392 337.109L23.8944 335.649Z" fill="#D6D8E5"/>
<path opacity="0.4" d="M167.995 283.647L124.941 258.792C121.832 256.999 122.225 253.868 125.811 251.795L153.706 235.692L208.008 267.067L180.12 283.17C176.527 285.243 171.103 285.462 167.995 283.647Z" fill="#D6D8E5"/>
<path d="M171.141 281.824L128.08 256.961C124.979 255.169 125.372 252.045 128.95 249.972L156.845 233.869L211.147 265.214L183.251 281.325C179.666 283.39 174.242 283.647 171.141 281.824Z" fill="#B1B4C4"/>
<path d="M211.147 265.214V263.572L208.643 265.017L211.147 265.214Z" fill="#B1B4C4"/>
<path d="M125.985 254.004V252.332L128.564 253.399L125.985 254.004Z" fill="#B1B4C4"/>
<path d="M171.141 280.183L128.08 255.32C124.979 253.527 125.372 250.396 128.95 248.331L156.845 232.212L211.147 263.565L183.251 279.668C179.666 281.748 174.242 281.968 171.141 280.183Z" fill="#D6D8E5"/>
<path d="M156.997 232.295L150.272 209.997L205.164 241.486L211.147 263.572L156.997 232.295Z" fill="#9EA1AF"/>
<path d="M209.558 264.487L211.147 263.572L208.764 261.711L209.558 264.487Z" fill="#9EA1AF"/>
<path d="M155.264 233.135L148.54 210.837L203.432 242.325L209.558 264.487L155.264 233.135Z" fill="#B1B4C4"/>
<path d="M294.607 302.065L82.129 179.393C79.1488 177.669 76.7359 173.055 76.7359 169.084V4.72743C76.7359 0.75637 79.1488 -1.0741 82.129 0.650476L294.607 123.292C297.587 125.009 300 129.623 300 133.601V298.018C300 301.959 297.587 303.789 294.607 302.065Z" fill="#C4C7D6"/>
<path d="M295.696 303.759L298.056 302.405L297.035 295.424L295.696 303.759Z" fill="#C4C7D6"/>
<path d="M76.3502 1.65651L78.6647 0.325256L81.9928 2.2238C81.9928 2.2238 78.4454 2.76084 78.3622 2.73814C78.279 2.71545 76.3502 1.65651 76.3502 1.65651Z" fill="#B1B4C4"/>
<path d="M292.655 303.192L80.1775 180.52C77.1973 178.796 74.7769 174.182 74.7769 170.211V5.85445C74.7769 1.87583 77.1973 0.0529306 80.1775 1.76994L292.648 124.442C295.628 126.166 298.049 130.78 298.049 134.759V299.107C298.056 303.086 295.636 304.909 292.655 303.192Z" fill="#E4E7F2"/>
<path d="M292.285 303.404L79.8069 180.732C76.8267 179.008 74.4138 174.394 74.4138 170.423V6.0511C74.4138 2.08004 76.8267 0.249573 79.8069 1.97415L292.285 124.661C295.265 126.378 297.678 130.992 297.678 134.97V299.327C297.678 303.313 295.265 305.128 292.285 303.404Z" fill="#201D38"/>
<path opacity="0.3" d="M294.758 293.412L77.1066 167.753L77.22 6.72433C77.22 5.07539 78.3773 4.40977 79.8069 5.21154L292.285 127.906C293.038 128.396 293.665 129.057 294.114 129.835C294.564 130.613 294.823 131.486 294.872 132.384L294.758 293.412Z" fill="#3A3756"/>
<path d="M209.233 107.468L194.809 99.1402V93.9362L209.233 102.264V107.468Z" fill="#A298E2"/>
<path d="M242.575 126.733L211.933 109.026V103.822L242.575 121.529V126.733Z" fill="#F4CE2C"/>
<path d="M209.233 124.116L194.809 115.796V110.592L209.233 118.912V124.116Z" fill="#A298E2"/>
<path d="M222.084 131.665L211.933 125.682V120.478L222.084 126.461V131.665Z" fill="#4D3BFF"/>
<path d="M209.233 132.444L194.809 124.116V118.912L209.233 127.24V132.444Z" fill="#A298E2"/>
<path d="M229.058 143.888L211.933 134.002V128.798L229.058 138.684V143.888Z" fill="#4D3BFF"/>
<path d="M209.233 140.764L194.809 132.444V127.24L209.233 135.568V140.764Z" fill="#A298E2"/>
<path d="M257.097 168.342L211.933 142.33V137.126L257.097 163.146V168.342Z" fill="#FF8657"/>
<path d="M209.233 115.796L194.809 107.468V102.264L209.233 110.592V115.796Z" fill="#A298E2"/>
<path d="M268.194 149.871L211.933 117.354V112.15L268.194 144.667V149.871Z" fill="#A298E2"/>
<path d="M209.233 149.092L194.809 140.764V135.56L209.233 143.888V149.092Z" fill="#A298E2"/>
<path d="M260.6 179.272L211.933 150.658V145.454L260.6 174.068V179.272Z" fill="#C33AFC"/>
<path d="M209.233 165.748L194.809 157.42V152.216L209.233 160.544V165.748Z" fill="#A298E2"/>
<path d="M268.716 200.088L211.933 167.306V162.102L268.716 194.884V200.088Z" fill="#A298E2"/>
<path d="M209.233 174.068L194.809 165.748V160.544L209.233 168.864V174.068Z" fill="#A298E2"/>
<path d="M229.058 185.52L211.933 175.627V170.43L229.058 180.316V185.52Z" fill="#C33AFC"/>
<path d="M209.233 182.396L194.809 174.068V168.864L209.233 177.192V182.396Z" fill="#A298E2"/>
<path d="M246.924 204.248L211.933 183.954V178.75L246.924 199.044V204.248Z" fill="#4D3BFF"/>
<path d="M209.233 157.42L194.809 149.092V143.888L209.233 152.216V157.42Z" fill="#A298E2"/>
<path d="M218.242 162.624L211.933 158.978V153.774L218.242 157.42V162.624Z" fill="#4D3BFF"/>
<path d="M209.233 190.724L194.809 182.396V177.192L209.233 185.52V190.724Z" fill="#A298E2"/>
<path d="M234.519 205.292L211.933 192.282V187.078L234.519 200.088V205.292Z" fill="#C33AFC"/>
<path d="M209.233 207.372L194.809 199.044V193.84L209.233 202.168V207.372Z" fill="#A298E2"/>
<path d="M244.889 227.719L211.933 208.93V203.727L244.889 222.515V227.719Z" fill="#FF8657"/>
<path d="M209.233 215.7L194.809 207.372V202.168L209.233 210.496V215.7Z" fill="#A298E2"/>
<path d="M216.048 219.86L211.933 217.258V212.054L216.048 214.656V219.86Z" fill="#A298E2"/>
<path d="M209.233 224.02L194.809 215.7V210.496L209.233 218.816V224.02Z" fill="#A298E2"/>
<path d="M230.836 236.471L211.933 225.586V220.382L230.836 231.267V236.471Z" fill="#F4CE2C"/>
<path d="M209.233 199.044L194.809 190.724V185.513L209.233 193.84V199.044Z" fill="#A298E2"/>
<path d="M238.233 215.7L211.933 200.603V195.406L238.233 210.496V215.7Z" fill="#4D3BFF"/>
<path d="M115.94 55.4359L101.515 47.108V41.9041L115.94 50.2319V55.4359Z" fill="#A298E2"/>
<path d="M179.93 92.3781L118.64 56.9941V51.7901L179.93 87.1741V92.3781Z" fill="#C33AFC"/>
<path d="M115.94 72.0841L101.515 63.7562V58.5522L115.94 66.8801V72.0841Z" fill="#A298E2"/>
<path d="M159.198 97.0602L118.64 73.6423V68.4383L159.198 91.8562V97.0602Z" fill="#F4CE2C"/>
<path d="M115.94 80.412L101.515 72.0841V66.8801L115.94 75.208V80.412Z" fill="#A298E2"/>
<path d="M169.114 111.106L118.64 81.9702V76.7662L169.114 105.902V111.106Z" fill="#FF8657"/>
<path d="M115.94 88.7323L101.515 80.412V75.208L115.94 83.5283V88.7323Z" fill="#A298E2"/>
<path d="M153.79 110.592L118.64 90.298V85.094L153.79 105.388V110.592Z" fill="#A298E2"/>
<path d="M115.94 63.7562L101.515 55.4283V50.2319L115.94 58.5522V63.7562Z" fill="#A298E2"/>
<path d="M149.281 83.014L118.64 65.322V60.118L149.281 77.81V83.014Z" fill="#4D3BFF"/>
<path d="M115.94 97.0602L101.515 88.7323V83.5283L115.94 91.8562V97.0602Z" fill="#A298E2"/>
<path d="M136.665 109.026L118.64 98.6183V93.4143L136.665 103.822V109.026Z" fill="#C33AFC"/>
<path d="M115.94 113.708L101.515 105.38V100.184L115.94 108.504V113.708Z" fill="#A298E2"/>
<path d="M175.422 148.056L118.64 115.274V110.07L175.422 142.852V148.056Z" fill="#F4CE2C"/>
<path d="M115.94 122.036L101.515 113.708V108.504L115.94 116.832V122.036Z" fill="#A298E2"/>
<path d="M135.765 133.48L118.64 123.594V118.39L135.765 128.276V133.48Z" fill="#FF8657"/>
<path d="M115.94 130.364L101.515 122.036V116.832L115.94 125.16V130.364Z" fill="#A298E2"/>
<path d="M169.114 161.058L118.64 131.922V126.718L169.114 155.862V161.058Z" fill="#A298E2"/>
<path d="M115.94 105.388L101.515 97.0602V91.8562L115.94 100.184V105.388Z" fill="#A298E2"/>
<path d="M166.406 134.524L118.64 106.946V101.742L166.406 129.32V134.524Z" fill="#4D3BFF"/>
<path d="M115.94 138.684L101.515 130.357V125.16L115.94 133.48V138.684Z" fill="#A298E2"/>
<path d="M124.948 143.888L118.64 140.25V135.046L124.948 138.684V143.888Z" fill="#C33AFC"/>
<path d="M115.94 155.34L101.515 147.012V141.808L115.94 150.136V155.34Z" fill="#A298E2"/>
<path d="M130.357 163.66L118.64 156.898V151.694L130.357 158.456V163.66Z" fill="#F4CE2C"/>
<path d="M115.94 163.66L101.515 155.34V150.136L115.94 158.456V163.66Z" fill="#A298E2"/>
<path d="M149.281 182.918L118.64 165.226V160.022L149.281 177.714V182.918Z" fill="#FF8657"/>
<path d="M115.94 171.988L101.515 163.66V158.456L115.94 166.784V171.988Z" fill="#A298E2"/>
<path d="M167.306 201.646L118.64 173.546V168.342L167.306 196.442V201.646Z" fill="#A298E2"/>
<path d="M115.94 147.012L101.515 138.684V133.48L115.94 141.808V147.012Z" fill="#A298E2"/>
<path d="M179.93 183.954L118.64 148.57V143.366L179.93 178.75V183.954Z" fill="#4D3BFF"/>
<path opacity="0.4" d="M226.728 378.196C244.207 378.196 258.376 370.014 258.376 359.921C258.376 349.829 244.207 341.647 226.728 341.647C209.25 341.647 195.081 349.829 195.081 359.921C195.081 370.014 209.25 378.196 226.728 378.196Z" fill="#D6D8E5"/>
<path d="M261.485 357.327V308.608L198.318 310.196L198.454 355.126C197.274 360.534 200.27 366.184 207.463 370.337C219.822 377.47 239.859 377.477 252.219 370.337C258.429 366.729 261.515 362.024 261.485 357.327Z" fill="#A6CE28"/>
<path d="M229.837 326.859C247.316 326.859 261.485 318.678 261.485 308.585C261.485 298.492 247.316 290.311 229.837 290.311C212.359 290.311 198.19 298.492 198.19 308.585C198.19 318.678 212.359 326.859 229.837 326.859Z" fill="#BCD64D"/>
<path d="M256.485 308.608C256.485 311.58 254.011 314.704 249.715 317.193C245.025 319.886 238.619 321.55 231.872 321.822C231.199 321.822 230.525 321.867 229.845 321.867C222.356 321.867 215.118 320.158 209.967 317.193C205.67 314.704 203.197 311.58 203.197 308.608C203.197 305.635 205.67 302.511 209.967 300.023C215.118 297.05 222.356 295.341 229.837 295.341C230.518 295.341 231.199 295.341 231.872 295.386C238.619 295.658 245.025 297.322 249.715 300.023C254.011 302.488 256.485 305.582 256.485 308.608Z" fill="#28221C"/>
<path opacity="0.07" d="M256.485 308.608C256.485 311.58 254.011 314.704 249.715 317.193C245.025 319.886 238.619 321.55 231.872 321.822C225.125 321.55 218.711 319.886 214.029 317.193C209.725 314.659 207.251 311.558 207.251 308.608C207.251 305.658 209.717 302.511 214.013 300.023C218.703 297.322 225.117 295.658 231.864 295.386C238.611 295.658 245.018 297.322 249.708 300.023C254.011 302.489 256.485 305.582 256.485 308.608Z" fill="white"/>
<path d="M256.855 331.156L250.139 327.268L246.871 329.159L250.139 331.05V332.29L256.439 335.921L256.25 337.086C257.166 337.842 260.426 343.893 260.426 343.893L260.653 343.682V359.362C260.653 363.476 258.24 362.085 257.211 361.487L250.139 357.403L246.871 359.286L250.139 361.169V362.41L257.211 366.494C257.926 366.923 258.687 367.268 259.48 367.523L259.057 369.49L262.717 367.425H262.77H262.823C264.336 366.532 264.979 364.361 264.979 361.926V345.474C265.009 338.523 259.677 333.069 256.855 331.156Z" fill="#8DA01F"/>
<path d="M253.943 368.408L246.871 364.324V359.286L253.943 363.37C254.972 363.96 257.385 365.36 257.385 361.237V344.862C257.385 340.989 253.883 338.311 253.285 337.888L246.871 334.181V329.159L253.588 333.047C256.417 334.96 261.712 340.422 261.712 347.373V363.764C261.712 368.189 259.692 371.721 253.943 368.408Z" fill="#99B524"/>
<path opacity="0.4" d="M31.2919 281.385C43.3271 281.385 53.0836 275.75 53.0836 268.799C53.0836 261.848 43.3271 256.212 31.2919 256.212C19.2567 256.212 9.50028 261.848 9.50028 268.799C9.50028 275.75 19.2567 281.385 31.2919 281.385Z" fill="#D6D8E5"/>
<path d="M34.4007 279.056C46.4359 279.056 56.1923 273.42 56.1923 266.469C56.1923 259.518 46.4359 253.883 34.4007 253.883C22.3655 253.883 12.609 259.518 12.609 266.469C12.609 273.42 22.3655 279.056 34.4007 279.056Z" fill="#D6D8E5"/>
<path d="M5.22667 223.446L12.8511 267.339H56.1394L63.5747 223.763L5.22667 223.446Z" fill="#D6D8E5"/>
<path d="M34.4007 239.761C50.5298 239.761 63.605 232.212 63.605 222.901C63.605 213.589 50.5298 206.041 34.4007 206.041C18.2716 206.041 5.19641 213.589 5.19641 222.901C5.19641 232.212 18.2716 239.761 34.4007 239.761Z" fill="#E4E6EF"/>
<path d="M34.4007 236.04C27.2452 236.04 20.5738 234.466 15.6119 231.6C11.3534 229.149 8.91786 225.972 8.91786 222.901C8.91786 219.83 11.3534 216.653 15.6119 214.202C20.5663 211.336 27.2452 209.762 34.4007 209.762C41.5561 209.762 48.2351 211.336 53.1894 214.202C57.4479 216.653 59.8835 219.83 59.8835 222.901C59.8835 225.972 57.4857 229.187 53.1894 231.6C48.2351 234.481 41.6015 236.04 34.4007 236.04Z" fill="#28221C"/>
<path d="M46.9643 209.619C47.3777 203.947 46.4745 198.256 44.3253 192.99C42.1761 187.725 38.839 183.028 34.5747 179.265L34.4915 179.182V179.34C30.2231 183.104 26.8831 187.803 24.7324 193.072C22.5818 198.34 21.6788 204.034 22.0942 209.71L5.38551 208.098C12.4351 234.655 34.5747 232.371 34.5747 232.371V232.318C36.2463 232.447 56.8958 233.513 63.6503 208.038L46.9643 209.619Z" fill="#99B524"/>
<path d="M34.5747 232.371C34.5747 232.371 33.0619 211.691 5.31743 197.766C5.29474 197.766 -1.25561 232.121 34.5747 232.371Z" fill="#A6CE28"/>
<path d="M34.4007 232.371C34.4007 232.371 35.9135 211.691 63.6579 197.766C63.6579 197.766 70.2309 232.121 34.4007 232.371Z" fill="#A6CE28"/>
</g>
<defs>
<clipPath id="clip0_404_2409">
<rect width="300" height="378.196" fill="white"/>
</clipPath>
</defs>
</svg>
