<svg width="40" height="41" viewBox="0 0 40 41" fill="none" xmlns="http://www.w3.org/2000/svg">
<g id="css">
<path id="Vector" d="M7.37751 34.2296L4.57001 2.72839H35.43L32.6188 34.2246L19.9813 37.7284L7.37751 34.2296Z" fill="#1572B6"/>
<path id="Vector_2" d="M20 35.0509L30.2125 32.2197L32.615 5.30466H20V35.0509Z" fill="#33A9DC"/>
<path id="Vector_3" d="M20 16.7172H25.1125L25.465 12.7609H20V8.89716H29.6875L29.595 9.93341L28.6462 20.5809H20V16.7172Z" fill="white"/>
<path id="Vector_4" d="M20.0238 26.7509L20.0063 26.7559L15.7038 25.5934L15.4288 22.5121H11.55L12.0913 28.5784L20.005 30.7759L20.0238 30.7709V26.7509Z" fill="#EBEBEB"/>
<path id="Vector_5" d="M24.7837 20.4171L24.3187 25.5909L20.01 26.7534V30.7734L27.93 28.5784L27.9887 27.9259L28.66 20.4171H24.7837Z" fill="white"/>
<path id="Vector_6" d="M20.0137 8.89716V12.7609H10.6812L10.6037 11.8922L10.4275 9.93341L10.335 8.89716H20.0137ZM20 16.7172V20.5809H15.7512L15.6737 19.7122L15.4987 17.7534L15.4062 16.7172H20Z" fill="#EBEBEB"/>
</g>
</svg>
