<svg width="40" height="30" viewBox="0 0 40 30" fill="none" xmlns="http://www.w3.org/2000/svg">
<path id="Vector" d="M39.1691 11.8115C38.2685 11.1866 36.2049 10.9523 34.5916 11.2647C34.4041 9.70266 33.5411 8.33601 32.0402 7.12541L31.1774 6.50058L30.5769 7.39877C29.8266 8.57032 29.4514 10.2105 29.5639 11.7726C29.6014 12.3191 29.789 13.2954 30.3518 14.1546C29.8266 14.467 28.7385 14.8575 27.3128 14.8575H0.185931L0.110951 15.1699C-0.151789 16.7318 -0.151789 21.6131 2.92486 25.3619C5.25109 28.2125 8.70295 29.6575 13.2428 29.6575C23.0729 29.6575 30.3518 24.9322 33.7662 16.3803C35.1169 16.4194 38.0059 16.3803 39.4693 13.4515C39.5068 13.3734 39.5817 13.2172 39.8443 12.6315L39.9944 12.3191L39.1691 11.8115ZM21.8723 0.799347H17.7453V4.70436H21.8723V0.799347ZM21.8723 5.48539H17.7453V9.39041H21.8723V5.48524V5.48539ZM16.9947 5.48539H12.8677V9.39041H16.9947V5.48524V5.48539ZM12.1172 5.48539H7.99002V9.39041H12.1172V5.48524V5.48539ZM7.2396 10.1714H3.11246V14.0765H7.23945V10.1713L7.2396 10.1714ZM12.1172 10.1714H7.99002V14.0765H12.1172V10.1713V10.1714ZM16.9947 10.1714H12.8677V14.0765H16.9947V10.1713V10.1714ZM21.8724 10.1714H17.7451V14.0765H21.8724V10.1713V10.1714ZM26.75 10.1714H22.6227V14.0765H26.75V10.1713V10.1714Z" fill="#2396ED"/>
</svg>
