<svg width="40" height="41" viewBox="0 0 40 41" fill="none" xmlns="http://www.w3.org/2000/svg">
<g id="figma" clip-path="url(#clip0_404_2222)">
<path id="Vector" d="M13.3333 40.2284C17.0133 40.2284 20 37.2417 20 33.5617V26.8951H13.3333C9.65332 26.8951 6.66666 29.8817 6.66666 33.5617C6.66666 37.2417 9.65332 40.2284 13.3333 40.2284Z" fill="#0ACF83"/>
<path id="Vector_2" d="M6.66666 20.2284C6.66666 16.5484 9.65332 13.5617 13.3333 13.5617H20V26.895H13.3333C9.65332 26.895 6.66666 23.9084 6.66666 20.2284Z" fill="#A259FF"/>
<path id="Vector_3" d="M6.66666 6.89506C6.66666 3.21506 9.65332 0.228394 13.3333 0.228394H20V13.5617H13.3333C9.65332 13.5617 6.66666 10.5751 6.66666 6.89506Z" fill="#F24E1E"/>
<path id="Vector_4" d="M20 0.228394H26.6667C30.3467 0.228394 33.3333 3.21506 33.3333 6.89506C33.3333 10.5751 30.3467 13.5617 26.6667 13.5617H20V0.228394Z" fill="#FF7262"/>
<path id="Vector_5" d="M33.3333 20.2284C33.3333 23.9084 30.3467 26.895 26.6667 26.895C22.9867 26.895 20 23.9084 20 20.2284C20 16.5484 22.9867 13.5617 26.6667 13.5617C30.3467 13.5617 33.3333 16.5484 33.3333 20.2284Z" fill="#1ABCFE"/>
</g>
<defs>
<clipPath id="clip0_404_2222">
<rect width="40" height="40" fill="white" transform="translate(0 0.228394)"/>
</clipPath>
</defs>
</svg>
