<svg width="40" height="41" viewBox="0 0 40 41" fill="none" xmlns="http://www.w3.org/2000/svg">
<g id="git" clip-path="url(#clip0_404_2209)">
<path id="Vector" d="M39.2456 18.4462L21.7812 0.98276C20.7761 -0.0230213 19.1448 -0.0230213 18.1384 0.98276L14.5119 4.60932L19.1123 9.20979C20.1814 8.84854 21.4073 9.09089 22.2595 9.94307C23.1158 10.8007 23.3564 12.0371 22.9864 13.1096L27.42 17.5434C28.4927 17.1739 29.7303 17.4129 30.587 18.271C31.7844 19.4679 31.7844 21.4078 30.587 22.6054C29.3894 23.8032 27.4495 23.8032 26.2512 22.6054C25.3506 21.7039 25.1281 20.3812 25.5841 19.2717L21.4494 15.137L21.4489 26.0178C21.7486 26.166 22.0224 26.3617 22.2595 26.5974C23.4569 27.7943 23.4569 29.7343 22.2595 30.9329C21.0619 32.1301 19.1211 32.1301 17.9252 30.9329C16.7278 29.7343 16.7278 27.7945 17.9252 26.5976C18.2121 26.3105 18.5531 26.0832 18.9284 25.9287V14.9465C18.5525 14.7931 18.2114 14.5656 17.9252 14.2776C17.018 13.3717 16.7998 12.0406 17.2647 10.9267L12.7297 6.3912L0.754687 18.3654C-0.251563 19.3721 -0.251563 21.0035 0.754687 22.0095L18.2194 39.4732C19.2248 40.4792 20.8558 40.4792 21.8625 39.4732L39.2455 22.0906C40.2514 21.0843 40.2514 19.452 39.2455 18.4462" fill="#DE4C36"/>
</g>
<defs>
<clipPath id="clip0_404_2209">
<rect width="40" height="40" fill="white" transform="translate(0 0.228394)"/>
</clipPath>
</defs>
</svg>
