<svg width="40" height="41" viewBox="0 0 40 41" fill="none" xmlns="http://www.w3.org/2000/svg">
<g id="html">
<path id="Vector" d="M7.37751 34.2296L4.56876 2.72839H35.4313L32.6188 34.2246L19.9813 37.7284L7.37751 34.2296Z" fill="#E44F26"/>
<path id="Vector_2" d="M20 35.0509L30.2125 32.2197L32.615 5.30466H20V35.0509Z" fill="#F1662A"/>
<path id="Vector_3" d="M20 16.9871H14.8875L14.535 13.0309H20V9.16714H10.3125L10.405 10.2046L11.3538 20.8509H20V16.9871ZM20 27.0209L19.9825 27.0259L15.68 25.8646L15.405 22.7834H11.5262L12.0675 28.8484L19.9825 31.0459L20 31.0409V27.0209Z" fill="#EBEBEB"/>
<path id="Vector_4" d="M19.9863 16.9871V20.8509H24.7438L24.2963 25.8621L19.9863 27.0246V31.0446L27.9075 28.8484L27.965 28.1959L28.8725 18.0246L28.9675 16.9871H19.9863ZM19.9863 9.16714V13.0309H29.3188L29.3963 12.1634L29.5725 10.2046L29.665 9.16714H19.9863Z" fill="white"/>
</g>
</svg>
