<svg width="40" height="41" viewBox="0 0 40 41" fill="none" xmlns="http://www.w3.org/2000/svg">
<g id="javascript" clip-path="url(#clip0_404_2286)">
<path id="Vector" d="M0 0.228394H40V40.2284H0V0.228394Z" fill="#F7DF1E"/>
<path id="Vector_2" d="M10.5175 33.6553L13.5784 31.8028C14.1691 32.8498 14.7063 33.7358 15.9948 33.7358C17.23 33.7358 18.0089 33.2526 18.0089 31.3733V18.5923H21.7678V31.4264C21.7678 35.3197 19.4856 37.0919 16.1559 37.0919C13.1489 37.0919 11.4034 35.5345 10.5173 33.655M23.8095 33.2525L26.8702 31.4804C27.6759 32.7962 28.7231 33.7628 30.5756 33.7628C32.1333 33.7628 33.1264 32.984 33.1264 31.91C33.1264 30.6212 32.1061 30.1647 30.3877 29.4131L29.4481 29.01C26.7361 27.8558 24.9372 26.4058 24.9372 23.3448C24.9372 20.5254 27.0852 18.3773 30.4416 18.3773C32.8313 18.3773 34.5497 19.2098 35.7847 21.3847L32.8578 23.2643C32.2133 22.1098 31.5155 21.6534 30.4414 21.6534C29.3405 21.6534 28.6424 22.3515 28.6424 23.2643C28.6424 24.392 29.3405 24.8487 30.9514 25.5468L31.8911 25.9495C35.0864 27.319 36.8853 28.7151 36.8853 31.8564C36.8853 35.2398 34.2272 37.0923 30.6561 37.0923C27.1656 37.0923 24.9102 35.4276 23.8094 33.2526" fill="black"/>
</g>
<defs>
<clipPath id="clip0_404_2286">
<rect width="40" height="40" fill="white" transform="translate(0 0.228394)"/>
</clipPath>
</defs>
</svg>
