<svg width="40" height="41" viewBox="0 0 40 41" fill="none" xmlns="http://www.w3.org/2000/svg">
<path d="M18.4084 5.42883L19.2753 7.057C19.4702 7.35746 19.6813 7.62341 19.93 7.87109C20.6591 8.5911 21.3387 9.35957 21.9642 10.1712C23.433 12.0999 24.4237 14.2417 25.1312 16.558C25.5555 17.9731 25.7859 19.4246 25.8032 20.8924C25.8742 25.2805 24.3699 29.0485 21.3369 32.18C20.8435 32.6765 20.3105 33.1321 19.7432 33.5422C19.4428 33.5422 19.3007 33.3118 19.1768 33.0996C18.9513 32.7062 18.8012 32.2742 18.7342 31.8257C18.6277 31.2948 18.5576 30.7639 18.5921 30.2158V29.9681C18.5678 29.9153 18.3028 5.55369 18.4084 5.42883Z" fill="#599636"/>
<path d="M18.4084 5.37501C18.3729 5.30395 18.3374 5.35775 18.3018 5.39227C18.3191 5.74754 18.1952 6.06424 18.0014 6.36673C17.7882 6.66719 17.506 6.89761 17.2228 7.14529C15.6495 8.50751 14.4111 10.1529 13.4193 11.9933C12.0998 14.47 11.4197 17.1244 11.2268 19.9189C11.1385 20.9269 11.5455 24.4837 11.8632 25.5099C12.7301 28.2344 14.2872 30.5173 16.3042 32.4987C16.7995 32.9757 17.3294 33.4183 17.8775 33.8436C18.0369 33.8436 18.0542 33.7015 18.0907 33.596C18.1606 33.3701 18.2138 33.1394 18.2501 32.9057L18.6053 30.2523L18.4084 5.37501Z" fill="#6CAC48"/>
<path d="M19.2753 34.6202C19.3108 34.2141 19.5057 33.8771 19.7179 33.5411C19.5047 33.4528 19.3463 33.2772 19.2225 33.0813C19.1157 32.8958 19.0273 32.7003 18.9586 32.4977C18.7109 31.7546 18.6581 30.975 18.5871 30.2158V29.756C18.4988 29.827 18.4805 30.4279 18.4805 30.5173C18.4288 31.3197 18.3223 32.1178 18.1618 32.9057C18.109 33.2244 18.0734 33.5422 17.8775 33.8254C17.8775 33.8609 17.8775 33.8964 17.8948 33.9492C18.2135 34.8871 18.3008 35.8423 18.3546 36.8158V37.171C18.3546 37.5953 18.3374 37.506 18.6896 37.6481C18.8317 37.7009 18.99 37.7192 19.1322 37.8247C19.2387 37.8247 19.256 37.7364 19.256 37.6654L19.2032 37.0817V35.4535C19.186 35.1693 19.2387 34.8871 19.2743 34.6212L19.2753 34.6202Z" fill="#C2BFBF"/>
</svg>
