<svg width="40" height="41" viewBox="0 0 40 41" fill="none" xmlns="http://www.w3.org/2000/svg">
<g id="mssql">
<path id="Vector" d="M25.2547 18.9017L16.487 21.5175L8.85914 24.5933L6.72514 25.108C6.18166 25.5803 5.6118 26.0587 4.99546 26.543C4.3195 27.0758 3.68993 27.5603 3.20607 27.9114C2.66931 28.2989 1.87404 29.0255 1.46981 29.4856C0.866707 30.1758 0.38957 30.9084 0.184113 31.4716C-0.18041 32.4888 -0.00138885 33.5181 0.70107 34.4688C1.60235 35.6797 3.39835 36.9148 5.49246 37.7564C6.55951 38.1864 8.35544 38.7374 9.70734 39.0461C11.9539 39.5669 16.3014 40.13 18.6937 40.2148C19.1774 40.233 19.8269 40.233 19.8534 40.2148C19.9065 40.1844 20.2776 39.5366 20.7084 38.7314C22.1797 35.9885 23.24 33.4152 23.8165 31.2173C24.1611 29.8853 24.4328 28.1112 24.6116 26.0103C24.6581 25.423 24.6779 23.4551 24.6382 22.7891C24.5785 21.6992 24.4724 20.8153 24.3069 19.9494C24.2804 19.8222 24.2737 19.7072 24.287 19.7011C24.3134 19.683 24.3929 19.6588 25.4732 19.3741L25.2546 18.9019V18.9018H25.2547V18.9017ZM23.2533 19.9735C23.3328 19.9735 23.5448 21.8323 23.5978 23.007C23.6111 23.2552 23.6044 23.4187 23.5912 23.4187C23.5382 23.4187 22.4712 22.8436 21.7092 22.4076C21.0465 22.0261 19.7873 21.2632 19.5885 21.1179C19.5221 21.0755 19.5287 21.0695 20.0723 20.8999C20.9933 20.6153 23.1804 19.9735 23.2533 19.9735ZM18.7866 21.3177C18.8463 21.3177 18.9986 21.3963 19.3631 21.6022C20.7283 22.3833 22.5839 23.3279 23.3792 23.6428C23.6243 23.7397 23.6508 23.7033 23.0876 24.0545C21.8814 24.8053 20.377 25.5439 18.5346 26.2887C18.2099 26.4219 17.9383 26.5248 17.9317 26.5248C17.9185 26.5248 17.9581 26.3735 18.0111 26.1918C18.4551 24.6841 18.707 23.1583 18.7203 21.9352C18.7269 21.3297 18.7269 21.3297 18.7866 21.3116C18.7733 21.3177 18.7799 21.3177 18.7866 21.3177ZM17.8654 21.6386C17.9051 21.6748 17.8786 23.0312 17.8256 23.4005C17.7063 24.2845 17.5207 25.1079 17.216 26.0344C17.1431 26.2583 17.0767 26.4461 17.0636 26.4582C17.0369 26.4884 16.129 25.6771 15.8308 25.3623C15.3139 24.8173 14.9097 24.2724 14.6115 23.7396C14.459 23.4671 14.2205 22.9343 14.2403 22.9161C14.3464 22.8495 17.8389 21.6144 17.8654 21.6386ZM13.5312 23.1946C13.5378 23.1946 13.5444 23.1946 13.5511 23.2007C13.5643 23.2128 13.6108 23.3097 13.6506 23.4186C13.8626 23.9454 14.3396 24.7204 14.7506 25.2169C15.2013 25.7619 15.7912 26.3431 16.2814 26.7246C16.4406 26.8457 16.5863 26.9607 16.6061 26.9789C16.646 27.0152 16.6592 27.0091 15.5789 27.3846C14.3265 27.8205 12.9612 28.2564 11.3972 28.7166C11.0236 28.8266 10.6503 28.9376 10.2774 29.0496C10.2176 29.0678 10.2376 29.0375 10.4099 28.7893C11.1852 27.6812 12.3648 25.5076 13.0276 23.9696C13.1402 23.7032 13.2529 23.4368 13.2728 23.3763C13.2993 23.2915 13.3324 23.2612 13.4185 23.2188C13.4649 23.2068 13.5114 23.1946 13.5312 23.1946ZM12.2059 23.6972C12.2257 23.7094 11.8877 24.3572 11.5564 24.9505C10.9135 26.0949 10.211 27.2211 9.26999 28.5895C9.11095 28.8256 8.95858 29.0436 8.93865 29.0678C8.90556 29.1102 8.89223 29.0981 8.78622 28.9104C8.5609 28.5047 8.37528 27.984 8.2759 27.5056C8.17645 27.0333 8.19638 26.2099 8.30908 25.7013C8.39514 25.326 8.3886 25.332 8.5874 25.2412C9.43566 24.8476 12.1794 23.673 12.2059 23.6972ZM23.6377 24.1211V24.3754C23.6377 25.7256 23.4786 27.5783 23.2466 28.9286C23.2068 29.1647 23.1736 29.3584 23.1671 29.3646C23.1671 29.3646 22.9749 29.3162 22.7496 29.2555C21.7555 28.9709 20.6753 28.5531 19.7011 28.0628C19.0581 27.7419 18.1238 27.215 18.1503 27.1908C18.1569 27.1848 18.4353 27.0516 18.7599 26.8941C20.059 26.2766 21.3048 25.6106 22.3851 24.9506C22.7893 24.7023 23.3989 24.3028 23.5316 24.1937L23.6377 24.1211ZM7.20228 25.9132C7.22878 25.9132 7.22214 25.9616 7.18239 26.1796C7.15586 26.3371 7.12276 26.6277 7.10959 26.8274C7.05645 27.7115 7.2156 28.3654 7.69274 29.2615C7.82528 29.5098 7.93139 29.7156 7.92466 29.7216C7.87824 29.758 3.49116 30.9327 2.11262 31.2778C1.70177 31.3807 1.34397 31.4715 1.31732 31.4775C1.27102 31.4897 1.26436 31.4836 1.28422 31.3806C1.43663 30.4906 2.1789 29.3281 3.2127 28.3472C3.90195 27.6933 4.45204 27.3119 5.39308 26.8213C6.06904 26.4702 7.1095 25.9435 7.18902 25.9192C7.18908 25.9132 7.19568 25.9132 7.20228 25.9132ZM17.5407 27.6025C17.5473 27.5965 17.7063 27.6752 17.8985 27.7781C19.3167 28.5289 21.2916 29.2253 22.9748 29.5824L23.1273 29.6128L22.9152 29.7216C22.0338 30.1697 19.1378 31.2717 16.1755 32.2829C15.7446 32.4281 15.3206 32.5735 15.2409 32.6037C15.1614 32.634 15.0885 32.6522 15.0885 32.6462C15.0885 32.64 15.2079 32.4281 15.3602 32.1678C16.1886 30.751 17.0237 29.0254 17.4478 27.8265C17.5009 27.7115 17.5339 27.6086 17.5407 27.6025ZM16.487 27.9174C16.4937 27.9236 16.4406 28.0506 16.3743 28.1959C15.7978 29.4734 15.0422 30.8661 14.0746 32.4282C13.8295 32.8279 13.624 33.1488 13.6173 33.1488C13.6108 33.1488 13.4119 33.0398 13.1733 32.9066C11.7683 32.1194 10.5224 31.1507 9.70737 30.2122L9.58803 30.079L10.191 29.9276C12.3515 29.3888 14.1872 28.8075 16.0097 28.0931C16.2682 27.9961 16.4804 27.9174 16.487 27.9174ZM23.0346 30.0063C23.0346 30.0063 23.0412 30.0123 23.0346 30.0063C23.0412 30.1456 22.7032 31.3929 22.4248 32.2949C22.1929 33.0518 21.994 33.6452 21.6296 34.6926C21.4705 35.1529 21.3315 35.5342 21.3247 35.5342C21.3181 35.5342 21.2784 35.5282 21.2386 35.5162C19.2704 35.1891 17.5075 34.735 15.8507 34.1296C15.3868 33.96 14.7241 33.6875 14.6844 33.6573C14.6712 33.6451 15.0688 33.4756 15.5724 33.2758C18.5878 32.0709 21.7158 30.7025 22.7893 30.1153C22.9152 30.0426 23.0147 30.0063 23.0346 30.0063ZM7.91806 30.4786C7.93133 30.4907 7.08967 31.5987 5.90998 33.1063C5.49913 33.6331 5.02199 34.2507 4.84309 34.4808C4.66413 34.7109 4.39245 35.0742 4.24001 35.2921L3.96155 35.6857L3.66331 35.4556C3.31205 35.1892 2.70243 34.6201 2.43072 34.3052C1.86074 33.6574 1.47645 32.9732 1.32401 32.3496C1.25109 32.0589 1.25109 31.9135 1.31729 31.8955C1.41667 31.8713 3.18614 31.4898 4.84303 31.1385C5.7642 30.9449 6.8311 30.7148 7.21548 30.63C7.5999 30.5451 7.91146 30.4786 7.91806 30.4786ZM8.7663 30.7753L8.97829 30.9932C9.93272 31.9681 10.9069 32.6887 12.0865 33.3183C12.2986 33.4273 12.4576 33.5241 12.4443 33.5303C12.398 33.5605 8.34875 34.8743 6.4733 35.4677C5.41964 35.8068 4.55142 36.0792 4.54488 36.0792C4.53828 36.0792 4.4786 36.0429 4.41222 36.0005L4.293 35.9218L4.48517 35.6675C5.10808 34.8441 5.89021 33.9419 7.59336 32.065L8.7663 30.7753ZM14.0548 34.2325C14.0614 34.2265 14.353 34.3233 14.7108 34.4445C15.5724 34.7412 16.2549 34.9288 17.1695 35.1408C18.2962 35.4012 19.9264 35.6555 20.8874 35.7281C21.0332 35.7402 21.1127 35.7523 21.0862 35.7705C21.0397 35.7947 20.0657 36.0914 19.3499 36.2973C18.2099 36.6242 14.7307 37.5627 11.8944 38.3075C11.3708 38.4467 10.9201 38.5618 10.8936 38.5678C10.8274 38.5799 10.6087 38.5254 10.6087 38.5012C10.6087 38.4891 10.7677 38.3014 10.9599 38.0955C11.9142 37.0541 12.8619 35.8916 13.6506 34.7896C13.8692 34.4868 14.0548 34.2386 14.0548 34.2325ZM12.8884 34.2629C12.895 34.2689 12.4245 34.9591 11.6028 36.1458C11.2515 36.6484 10.8605 37.2175 10.7213 37.4173C10.5887 37.6111 10.3899 37.9139 10.2773 38.0834L10.0851 38.3922L9.98571 38.368C9.74707 38.3074 8.07044 37.7685 7.6264 37.605C7.07631 37.4052 6.50639 37.1631 6.08222 36.9572C5.55212 36.6968 4.88945 36.3093 4.94241 36.2972C4.95564 36.2912 5.86359 36.0671 6.957 35.7947C9.85974 35.0741 11.4701 34.6564 12.5239 34.3536C12.7161 34.2991 12.8818 34.2567 12.8884 34.2629ZM21.1392 36.0308H21.1458C21.1723 36.0914 20.0988 38.816 19.7076 39.6758C19.6216 39.8695 19.5885 39.918 19.5421 39.9119C19.4294 39.9059 17.8721 39.7061 16.9243 39.5789C15.2742 39.3488 12.504 38.9068 11.8082 38.7615L11.6492 38.7313L12.6365 38.5253C14.7572 38.0893 15.7778 37.8532 16.8116 37.5626C18.1172 37.1993 19.4096 36.7452 20.715 36.1882C20.9205 36.1034 21.0928 36.0368 21.1392 36.0308Z" fill="url(#paint0_linear_404_2266)"/>
<path id="Vector_2" d="M16.2152 0.228704C16.0694 0.210639 13.7167 0.985641 12.1992 1.54867C10.1513 2.31166 8.56089 3.03828 7.58003 3.66784C7.21559 3.90408 6.75823 4.3218 6.68543 4.48525C6.65894 4.54581 6.64561 4.61846 6.64561 4.69111L7.5337 5.46009L9.6477 6.07767L14.6777 6.90114L20.43 7.80332L20.4897 7.34922C20.4699 7.34922 20.4566 7.34319 20.4369 7.34319L19.6812 7.23415L19.5288 6.98594C18.7468 5.72651 17.8853 4.16436 17.3817 3.11082C16.9907 2.2934 16.6195 1.34895 16.4141 0.670776C16.3014 0.259054 16.2882 0.234846 16.2154 0.228815V0.228676H16.2152V0.228704ZM16.1091 0.537593H16.1159C16.1224 0.543568 16.1489 0.713216 16.1755 0.912907C16.288 1.7607 16.4936 2.57797 16.8183 3.46201C17.0635 4.12806 17.0635 4.09176 16.7785 4.013C16.1026 3.84352 13.074 3.36518 10.8804 3.08666C10.5292 3.04425 10.2309 3.0019 10.2309 2.99587C10.2044 2.97166 11.8148 2.20263 12.5239 1.89997C13.4318 1.51843 15.9236 0.567832 16.1091 0.537593ZM9.72053 3.25011L9.9791 3.32874C11.384 3.76475 14.9161 4.38236 16.8646 4.52767C17.0833 4.54584 17.2689 4.56405 17.2754 4.56405C17.282 4.57008 17.0966 4.6609 16.8579 4.76379C15.917 5.19369 14.8831 5.72048 14.1674 6.12617C13.9554 6.24721 13.7631 6.34415 13.7366 6.34415C13.7101 6.34415 13.571 6.31991 13.4252 6.30173L13.1601 6.26535L12.4975 5.67195C11.3311 4.63664 10.4165 3.83743 10.0652 3.53463L9.72053 3.25011ZM9.45554 3.43777L10.39 4.50346C10.9002 5.09078 11.4171 5.66595 11.5299 5.79304C11.6424 5.92028 11.7353 6.02325 11.7287 6.02928C11.7021 6.04743 10.3768 5.81125 9.67423 5.666C8.95188 5.51459 8.65367 5.44194 8.20966 5.31484L7.84514 5.20581V5.12099C7.85174 4.71529 8.41512 4.10986 9.36939 3.49233L9.45554 3.43777ZM17.3948 4.89095C17.4214 4.89095 17.4544 4.94542 17.5339 5.1089C17.7593 5.56297 18.4619 6.78611 18.634 7.02221C18.6872 7.101 18.7798 7.10703 17.8455 6.96776C15.599 6.63466 14.8765 6.5258 14.8765 6.51368C14.8765 6.50765 14.9428 6.46524 15.0289 6.42283C15.7248 6.07172 16.4273 5.62362 17.0503 5.14528C17.2027 5.03021 17.3419 4.92124 17.3683 4.90303C17.3749 4.89094 17.3882 4.88491 17.3948 4.89095Z" fill="url(#paint1_linear_404_2266)"/>
<path id="Vector_3" d="M6.73172 4.40048C6.73172 4.40048 6.58601 4.61249 6.72515 4.92735C6.81139 5.12104 7.06317 5.35714 7.34809 5.59938C7.34809 5.59938 10.2972 8.22713 10.655 8.60259C12.2853 10.3221 12.9944 12.0175 13.0607 14.3546C13.1004 15.8562 12.7889 17.1762 12.0136 18.708C10.6351 21.4569 7.72575 24.4904 3.2392 27.8569L3.89539 27.6571C4.3195 27.3664 4.89608 27.0577 6.24798 26.3795C9.36931 24.8173 12.8817 23.3823 17.1894 21.905C23.3923 19.7736 33.5916 17.279 39.3968 16.4678L40 16.3829L39.9072 16.2497C39.3771 15.4989 39.0125 15.0327 38.575 14.5362C37.3027 13.0952 35.7587 11.9267 33.8699 10.9579C31.272 9.63192 27.9119 8.59656 23.6574 7.82758C22.8556 7.6822 21.0927 7.40372 19.6613 7.20391C16.626 6.77413 14.6644 6.47738 12.504 6.13831C11.7287 6.01716 10.5688 5.83556 9.80006 5.68423C9.40244 5.60544 8.64039 5.44199 8.04394 5.2543C7.56681 5.08468 6.87752 4.91515 6.73172 4.40048ZM8.44163 5.91424C8.44817 5.90827 8.55418 5.94448 8.69344 5.98689C8.94526 6.06552 9.26996 6.15637 9.65444 6.25332C9.9453 6.32641 10.2369 6.39705 10.5292 6.46521C10.9268 6.55598 11.2581 6.64078 11.2647 6.64078C11.3112 6.68319 11.9806 8.63874 12.2059 9.38957C12.2919 9.67422 12.3583 9.91635 12.3517 9.91635C12.3449 9.92249 12.2721 9.81949 12.186 9.68025C11.4106 8.43294 10.1845 7.1675 8.7663 6.15026C8.58083 6.02928 8.44163 5.92028 8.44163 5.91424ZM11.7022 6.73769C11.7353 6.73769 11.8811 6.75587 12.06 6.79216C13.1866 7.02223 15.2079 7.37342 16.5002 7.57325C16.7189 7.60349 16.8912 7.6399 16.8912 7.65193C16.8912 7.66411 16.8116 7.70641 16.7122 7.75491C16.4936 7.85779 15.6121 8.33608 15.3206 8.51776C14.5849 8.96581 13.9223 9.45018 13.4451 9.88611C13.2529 10.0617 13.0872 10.207 13.0872 10.207C13.0872 10.207 13.0475 10.1041 13.0142 9.97691C12.7758 9.13529 12.2787 7.88798 11.828 7.01009C11.7551 6.87087 11.6954 6.74369 11.6954 6.73163C11.6954 6.74372 11.6954 6.73769 11.7022 6.73769ZM17.4412 7.73673C17.481 7.74879 17.5473 7.95468 17.6798 8.40876C17.925 9.28676 18.0377 10.2676 17.9979 11.1819C17.9846 11.4362 17.9714 11.6723 17.9581 11.7026L17.9383 11.7631L17.5937 11.6602C16.8845 11.4544 15.7315 11.1455 14.7441 10.8913C14.1807 10.752 13.7235 10.6248 13.7235 10.6128C13.7235 10.5764 14.5453 9.82561 14.8965 9.54107C15.5657 9.00211 17.3815 7.71852 17.4412 7.73673ZM17.8985 7.79721C17.9184 7.77914 20.6422 8.20893 21.8815 8.42693C22.8027 8.59038 24.1413 8.84472 24.2208 8.87504C24.2606 8.8871 24.1214 8.95975 23.6773 9.14138C21.9278 9.86196 20.6288 10.5097 19.3367 11.2969C18.9987 11.5028 18.7137 11.6723 18.7071 11.6723C18.7005 11.6723 18.6938 11.4968 18.6938 11.2848C18.6938 10.1344 18.442 8.9719 17.978 7.99103C17.9316 7.89415 17.8919 7.80335 17.8985 7.79721ZM24.9431 9.06878C24.9631 9.08693 24.8769 9.57742 24.7973 9.86799C24.5588 10.7702 23.916 12.1084 23.1274 13.3677C22.9881 13.5917 22.8623 13.7734 22.8489 13.7794C22.8358 13.7854 22.6568 13.6946 22.4513 13.5856C21.6826 13.1739 20.8079 12.7864 19.8535 12.4231C19.5885 12.3202 19.3565 12.2354 19.3499 12.2233C19.3034 12.187 21.4374 10.8973 22.564 10.2797C23.4587 9.78325 24.9166 9.04452 24.9431 9.06878ZM25.4468 9.1414C25.5065 9.1414 26.7126 9.44418 27.3421 9.61372C28.8995 10.0376 30.6888 10.637 31.8552 11.1213L32.3389 11.3212L32.001 11.3938C29.1514 11.9932 26.7126 12.6835 24.3599 13.5554C24.1677 13.6281 23.9954 13.6886 23.9823 13.6886C23.969 13.6886 24.0353 13.5494 24.1214 13.3798C24.8305 12.0054 25.2878 10.5704 25.4003 9.34724C25.4071 9.23218 25.4268 9.1414 25.4468 9.1414ZM13.4385 11.6602C13.4583 11.642 14.3795 11.8419 14.8766 11.9689C15.632 12.1628 17.2357 12.6531 17.2357 12.6895C17.2357 12.6955 17.0569 12.8348 16.8449 13.0044C15.9767 13.6644 15.1416 14.3606 14.1409 15.2446C13.8426 15.5051 13.5909 15.717 13.5777 15.717C13.5644 15.717 13.5578 15.6805 13.5644 15.6321C13.7168 14.6149 13.6837 13.3071 13.4716 11.9811C13.4517 11.8115 13.4318 11.6663 13.4385 11.6602ZM32.7964 11.6784C32.8095 11.6905 32.3722 12.3202 32.0938 12.6774C31.6963 13.1981 31.1129 13.8884 29.7941 15.4021C29.0984 16.2013 28.3163 17.1035 28.0579 17.4062C27.7927 17.7089 27.5741 17.9632 27.5674 17.9632C27.5608 17.9632 27.4748 17.8543 27.3819 17.7211C26.6397 16.7039 25.7516 15.8138 24.6979 15.0146C24.4991 14.8632 24.2805 14.6997 24.2076 14.6512C24.1346 14.6028 24.0749 14.5544 24.0749 14.5484C24.0749 14.5302 25.2015 14.0881 26.0565 13.7734C27.5543 13.2163 29.5952 12.5503 31.1262 12.1203C31.9281 11.8903 32.783 11.6663 32.7964 11.6784ZM33.3066 11.7995C33.333 11.7934 33.4922 11.8661 33.6844 11.9689C35.2948 12.8106 36.8719 13.8944 38.118 15.0085C38.4692 15.3234 39.3373 16.1469 39.324 16.1529C39.324 16.1529 39.0191 16.1771 38.6613 16.2013C35.8713 16.3951 32.2994 16.9339 28.8664 17.6907C28.6345 17.7391 28.4291 17.7815 28.4158 17.7815C28.4027 17.7815 28.661 17.5454 28.9858 17.2609C31.0004 15.4868 31.9217 14.3667 33.0084 12.3686C33.1608 12.072 33.2934 11.8177 33.3066 11.7995C33.3 11.7995 33.3 11.7995 33.3066 11.7995ZM18.5479 13.18C18.6408 13.1981 19.5023 13.5676 20.1517 13.8642C20.7482 14.1365 21.6429 14.5726 21.6893 14.6089C21.6959 14.6149 21.3777 14.7663 20.9869 14.9419C19.7409 15.511 18.6739 16.0499 17.5605 16.6675C17.2424 16.8431 16.9774 16.9885 16.9708 16.9885C16.9442 16.9885 16.9508 16.9641 17.1298 16.6675C17.7263 15.6746 18.2033 14.4878 18.4751 13.3313C18.5016 13.2405 18.5281 13.18 18.5479 13.18ZM17.6864 13.3253C17.7063 13.3435 17.481 14.0882 17.3419 14.4939C17.0701 15.2628 16.6128 16.2255 16.1689 16.9521C16.0627 17.1215 15.9037 17.3698 15.8176 17.5091L15.6519 17.7513L15.2808 17.4244C14.8501 17.0429 14.4988 16.8068 14.0482 16.5948C13.8692 16.5101 13.7301 16.4374 13.7301 16.4253C13.7301 16.3769 14.8633 15.4384 15.7314 14.7603C16.3544 14.2698 17.6666 13.3071 17.6864 13.3253ZM22.9551 15.3052L23.2799 15.4989C24.0219 15.941 24.8967 16.5283 25.5662 17.0429C25.9438 17.3274 26.6728 17.9269 26.8187 18.0722L26.8981 18.151L26.3614 18.2902C23.3261 19.0591 20.9801 19.7433 18.2431 20.6637C17.9383 20.7666 17.6798 20.8514 17.6599 20.8514C17.6202 20.8514 17.587 20.8816 18.2697 20.3064C20.0193 18.8352 21.5699 17.2124 22.7231 15.6321L22.9551 15.3052ZM21.57 15.6201C21.5832 15.6321 20.6753 16.8007 20.1318 17.4607C19.4824 18.2478 18.3292 19.5677 17.534 20.4274C17.2027 20.7848 16.9178 21.0814 16.9045 21.0875C16.8845 21.0935 16.8779 21.0027 16.8779 20.8635C16.8779 20.1308 16.6725 19.3497 16.3146 18.6837C16.1622 18.4052 16.1357 18.3386 16.1689 18.3084C16.2948 18.2054 18.2233 17.2003 19.4426 16.6009C20.2644 16.2013 21.5499 15.608 21.57 15.6201ZM13.1932 17.4971C13.2131 17.4971 13.3656 17.5697 13.5379 17.6545C13.962 17.8664 14.3398 18.1025 14.6777 18.3569C14.6909 18.3689 14.5187 18.4961 14.2934 18.6474C13.6638 19.0591 12.7095 19.7191 12.1529 20.1248C11.5696 20.5487 11.5498 20.5608 11.616 20.47C12.0535 19.8584 12.272 19.5133 12.5041 19.0713C12.7095 18.6778 12.9149 18.2116 13.0607 17.8059C13.1137 17.6303 13.18 17.4971 13.1932 17.4971ZM15.4266 19.0955C15.4597 19.0895 15.4996 19.1439 15.6784 19.3862C16.0561 19.9007 16.3478 20.5911 16.4208 21.1481L16.4339 21.2692L15.5261 21.5902C13.9023 22.1653 12.4047 22.7345 11.3906 23.1583C11.1057 23.2794 10.6087 23.4973 10.284 23.6427C9.95922 23.794 9.69414 23.9091 9.69414 23.903C9.69414 23.897 9.89953 23.7577 10.1514 23.5882C12.133 22.2743 13.8494 20.8332 15.135 19.3922C15.2742 19.2408 15.4002 19.1015 15.4133 19.0955L15.4266 19.0955ZM14.3994 19.3256C14.426 19.3498 13.6705 20.1308 13.1536 20.6092C11.8745 21.802 10.6087 22.7345 9.03804 23.6427C8.83924 23.7577 8.66035 23.8606 8.64042 23.8728C8.594 23.897 8.65362 23.8364 9.34288 23.1522C9.78032 22.7223 10.1116 22.359 10.4894 21.9111C10.7412 21.6144 10.7876 21.572 11.1522 21.3358C12.1264 20.694 14.3729 19.3013 14.3994 19.3256Z" fill="url(#paint2_radial_404_2266)"/>
</g>
<defs>
<linearGradient id="paint0_linear_404_2266" x1="6.5963" y1="36.2716" x2="9.61218" y2="34.3211" gradientUnits="userSpaceOnUse">
<stop stop-color="#909CA9"/>
<stop offset="1" stop-color="#EDEDEE"/>
</linearGradient>
<linearGradient id="paint1_linear_404_2266" x1="6.66887" y1="4.00417" x2="9.21986" y2="4.00417" gradientUnits="userSpaceOnUse">
<stop stop-color="#939FAB"/>
<stop offset="1" stop-color="#DCDEE1"/>
</linearGradient>
<radialGradient id="paint2_radial_404_2266" cx="0" cy="0" r="1" gradientUnits="userSpaceOnUse" gradientTransform="translate(19.5412 14.6934) rotate(-172.186) scale(3.28293 6.02225)">
<stop stop-color="#EE352C"/>
<stop offset="1" stop-color="#A91D22"/>
</radialGradient>
</defs>
</svg>
