<svg width="40" height="41" viewBox="0 0 40 41" fill="none" xmlns="http://www.w3.org/2000/svg">
<g id="nestjs">
<path id="Vector" fill-rule="evenodd" clip-rule="evenodd" d="M23.1087 2.72839C22.8685 2.73175 22.6305 2.77396 22.4037 2.85339C24.4225 4.18089 22.0412 6.10339 23.1537 7.72839C23.0771 7.18182 23.164 6.62478 23.4036 6.12757C23.6432 5.63036 24.0247 5.21526 24.5 4.93464C24.8562 4.63839 25.085 4.53214 25.0087 4.04214C24.885 3.23964 23.815 2.72839 23.1087 2.72839ZM25.9837 3.24589C25.705 4.64964 25.3587 4.70089 24.33 5.60464C23.9287 5.92097 23.6456 6.3631 23.5261 6.85988C23.4066 7.35666 23.4577 7.8792 23.6712 8.34339C19.4212 6.69339 13.9737 5.69589 9.98 8.55089C8.54375 9.57714 7.6675 11.0509 5.89625 11.6521C4.75125 12.0446 3.62625 11.9284 2.90875 13.0634C2.64634 13.3911 2.50926 13.8016 2.52209 14.2213C2.53492 14.6409 2.69681 15.0423 2.97875 15.3534C3.1925 15.5721 3.60375 15.7121 3.77375 15.9346C3.8725 16.0596 3.87 16.1846 3.96375 16.3509C4.12943 16.7383 4.36887 17.0899 4.66875 17.3859C4.8525 17.5371 5.48375 17.6846 5.59125 17.8459C5.72625 18.0471 5.37625 18.8459 5.67 18.9709C5.8675 19.0621 6.44625 18.0409 6.5025 17.9509C6.3875 18.7546 6.23625 20.1809 7.14 18.9934C7.56875 18.4296 7.595 18.2434 8.31625 18.1184C8.77781 18.0382 9.24432 17.9898 9.7125 17.9734C12.3871 17.8798 14.9958 18.8157 17.0009 20.5883C19.006 22.3608 20.2548 24.835 20.49 27.5009C20.355 26.8759 19.5387 25.8759 18.7787 26.1134C18.455 26.2134 18.335 26.7721 18.1225 27.0959C17.8538 27.5064 17.5228 27.8725 17.1412 28.1809C17.2058 27.5749 17.1755 26.9625 17.0512 26.3659C16.8237 27.3009 16.3675 28.8521 15.2187 28.6009C14.8361 28.5425 14.4775 28.3777 14.184 28.1252C13.8905 27.8728 13.6738 27.543 13.5587 27.1734C13.41 26.2234 14.4137 25.1096 12.8 25.0309C9.5625 24.8721 10.3112 29.6334 12.2225 30.8746C11.7832 30.9232 11.3548 31.0427 10.9537 31.2284C12.1678 31.9335 13.5358 32.3312 14.9387 32.387C16.3415 32.4427 17.7368 32.1548 19.003 31.5483C20.2692 30.9419 21.368 30.0351 22.2038 28.9071C23.0397 27.779 23.5872 26.4638 23.7987 25.0759C24.0769 26.347 24.0705 27.6638 23.78 28.9321C23.6247 29.6061 23.3923 30.26 23.0875 30.8809C22.6743 31.7195 22.1252 32.484 21.4625 33.1434C21.07 33.5321 20.35 33.9234 20.1025 34.3196C21.6175 34.1188 23.0978 33.7117 24.5025 33.1096C23.0484 35.1013 21.112 36.6907 18.875 37.7284C21.2735 37.5587 23.592 36.7947 25.6215 35.5052C27.6509 34.2157 29.3275 32.4414 30.5 30.3421C30.1263 32.4416 29.2964 34.4335 28.0687 36.1771C29.7199 35.0717 31.1247 33.6369 32.1949 31.9627C33.265 30.2885 33.9775 28.4111 34.2875 26.4484C34.5953 27.8851 34.6834 29.3602 34.5487 30.8234C35.9051 28.9387 36.8214 26.7737 37.2301 24.4879C37.6387 22.2022 37.5293 19.8538 36.91 17.6159C36.4363 15.8762 35.7259 14.2098 34.7987 12.6634C34.4407 12.0608 34.0489 11.4791 33.625 10.9209C33.4587 10.7046 32.57 9.91339 32.57 9.67089C32.5625 9.69506 32.5562 9.69506 32.5512 9.67089C32.5512 13.7309 28.1762 16.3371 24.5125 15.2496C25.9056 15.1416 27.2223 14.5698 28.2524 13.6257C29.2824 12.6815 29.9664 11.4194 30.195 10.0409C30.3974 8.59471 30.0871 7.12329 29.3178 5.88206C28.5485 4.64083 27.3689 3.70814 25.9837 3.24589Z" fill="#E0234E"/>
</g>
</svg>
