<svg width="40" height="41" viewBox="0 0 40 41" fill="none" xmlns="http://www.w3.org/2000/svg">
<g id="node-js" clip-path="url(#clip0_404_2238)">
<path id="Vector" d="M15.69 35.2734C14.6633 35.8684 14.4683 35.9384 13.5033 36.28C13.27 36.36 12.9167 36.5017 13.6367 36.915L18.47 39.8117C18.9317 40.0834 19.465 40.225 19.99 40.225L19.9933 40.2284C20.525 40.2284 21.05 40.085 21.5117 39.815L35.9817 31.3534C36.9217 30.7984 37.5017 29.7734 37.5017 28.6784V11.765C37.5017 10.6617 36.9233 9.63671 35.9817 9.09004L21.5117 0.620039C20.6033 0.0967057 19.3883 0.0967057 18.4717 0.620039L4.01833 9.08171C3.08 9.63004 2.5 10.6617 2.5 11.7567V28.67C2.5 29.7734 3.07833 30.7984 4.01833 31.345L7.81 33.56C9.64333 34.4817 10.3 34.4817 11.1383 34.4817C13.8567 34.4817 15.4233 32.815 15.4233 29.91V13.2034C15.4233 12.9667 15.2283 12.7834 15 12.7834H13.1667C12.9317 12.7834 12.7433 12.965 12.7433 13.2034V29.9017C12.7433 31.195 11.4267 32.4734 9.27167 31.3867L5.30833 29.0684C5.17 28.9967 5.08333 28.8384 5.08333 28.6784V11.765C5.08333 11.6 5.17 11.44 5.31 11.36L19.7633 2.89837C19.895 2.81837 20.0767 2.81837 20.21 2.89837L34.6717 11.3517C34.8117 11.4384 34.8983 11.59 34.8983 11.7567V28.6784C34.8983 28.835 34.8133 28.995 34.68 29.075L20.21 37.5367C20.085 37.6167 19.8967 37.6167 19.7633 37.5367L16.05 35.3067C15.94 35.235 15.8 35.21 15.69 35.2734Z" fill="#8CC03E"/>
<path id="Vector_2" d="M24.4567 26.01C20.6267 26.01 19.7867 25.0334 19.5067 23.105C19.475 22.8984 19.3033 22.7484 19.0917 22.7484H17.22C16.985 22.7484 16.805 22.9384 16.805 23.1684C16.805 25.6367 18.1283 28.5817 24.465 28.5817C29.0383 28.5734 31.6733 26.7417 31.6733 23.55L31.6683 23.5517C31.6683 20.385 29.5533 19.5434 25.1117 18.9484C20.615 18.345 20.1617 18.035 20.1617 16.9717C20.1617 16.0917 20.5467 14.9167 23.875 14.9167C26.845 14.9167 27.9417 15.5667 28.395 17.5984C28.4333 17.79 28.6067 17.9317 28.8033 17.9317H30.6833C30.8 17.9317 30.91 17.885 30.9883 17.7967C31.0667 17.7084 31.105 17.59 31.0983 17.4717C30.8083 13.9717 28.5133 12.345 23.875 12.345C19.7467 12.345 17.2867 14.1084 17.2867 17.0667C17.2867 20.2734 19.7383 21.1634 23.695 21.5584C28.435 22.0284 28.8017 22.7334 28.8017 23.6784C28.805 25.3134 27.505 26.01 24.4567 26.01Z" fill="#8CC03E"/>
</g>
<defs>
<clipPath id="clip0_404_2238">
<rect width="40" height="40" fill="white" transform="translate(0 0.228394)"/>
</clipPath>
</defs>
</svg>
