<svg width="40" height="41" viewBox="0 0 40 41" fill="none" xmlns="http://www.w3.org/2000/svg">
<g id="pgsql">
<path id="Vector" d="M36.8838 23.6947C36.7782 23.3875 36.5879 23.1164 36.3349 22.9127C36.0819 22.709 35.7764 22.581 35.4538 22.5434C35.0725 22.4976 34.6862 22.5192 34.3125 22.6072C33.7344 22.7349 33.1464 22.8122 32.555 22.8384C34.1365 20.1702 35.3445 17.2976 36.145 14.3009C37.3363 9.68967 36.7 7.58967 35.9562 6.63842C34.9686 5.38886 33.7045 4.38541 32.2635 3.70696C30.8224 3.02852 29.2436 2.69356 27.6513 2.72842C26.1904 2.71473 24.7357 2.91864 23.335 3.33342C22.5007 3.19038 21.6564 3.11348 20.81 3.10342C19.2715 3.04501 17.7477 3.42056 16.4125 4.18717C15.4 3.84482 14.3616 3.58399 13.3075 3.40717C12.0787 3.11237 10.8038 3.06265 9.55569 3.26083C8.30762 3.45901 7.11084 3.90122 6.03375 4.56217C3.86625 6.09217 2.86125 8.75217 3.0475 12.4684C3.38098 15.2408 3.9693 17.9765 4.805 20.6409C5.2863 22.3052 5.91981 23.9216 6.6975 25.4697C7.27185 26.8819 8.36369 28.0216 9.75 28.6559C10.2582 28.8234 10.8019 28.8518 11.3247 28.7384C11.8476 28.625 12.3306 28.3738 12.7238 28.0109C12.9022 28.2222 13.1132 28.4036 13.3488 28.5484C13.7139 28.775 14.112 28.9437 14.5288 29.0484C15.8931 29.4284 17.3453 29.3404 18.6538 28.7984C18.6613 29.0122 18.6675 29.2172 18.6713 29.3947C18.6788 29.6809 18.6875 29.9622 18.6975 30.2259C18.6827 31.6202 18.8683 33.0094 19.2488 34.3509C19.2688 34.4047 19.295 34.4847 19.3225 34.5709C19.5421 35.392 19.9686 36.143 20.5613 36.7522C21.2718 37.4047 22.2095 37.7533 23.1738 37.7234C23.5845 37.7208 23.9938 37.6752 24.395 37.5872C25.1555 37.4917 25.8893 37.2448 26.5529 36.8612C27.2165 36.4775 27.7965 35.9649 28.2588 35.3534C29.2725 33.9097 29.7663 31.7359 29.855 28.3097L29.8875 28.0322L29.9088 27.8509L30.1475 27.8722H30.2088C31.5605 27.9294 32.9088 27.6958 34.1625 27.1872C34.9513 26.8209 37.48 25.4859 36.8838 23.6872" fill="black"/>
<path id="Vector_2" d="M34.6113 24.0446C30.6575 24.8596 30.3863 23.5222 30.3863 23.5222C34.56 17.3284 36.305 9.4659 34.7988 7.54215C30.6913 2.29215 23.58 4.7759 23.4613 4.83965L23.4225 4.84715C22.5539 4.67283 21.6709 4.58076 20.785 4.57215C19.2911 4.49719 17.8169 4.93857 16.61 5.82215C16.61 5.82215 3.925 0.595899 4.515 12.3946C4.64 14.9046 8.1125 31.3871 12.2538 26.4084C13.7675 24.5884 15.23 23.0484 15.23 23.0484C15.9666 23.5455 16.8528 23.7717 17.7375 23.6884L17.8088 23.6284C17.7878 23.8649 17.7975 24.1031 17.8375 24.3372C16.77 25.5297 17.0875 25.7384 14.9513 26.1772C12.7938 26.6222 14.0613 27.4134 14.8888 27.6209C15.768 27.9053 16.7145 27.9047 17.5934 27.6192C18.4722 27.3336 19.2384 26.7778 19.7825 26.0309L19.72 26.2809C20.1375 26.6159 20.4313 28.4584 20.3825 30.1297C20.2462 31.3726 20.3308 32.6299 20.6325 33.8434C20.9625 34.7397 21.29 36.7547 24.0938 36.1546C25.0908 36.0562 26.0181 35.5989 26.7032 34.868C27.3884 34.1371 27.7848 33.1822 27.8188 32.1809C27.9438 30.6384 28.21 30.8659 28.2263 29.4872L28.4438 28.8347C28.6938 26.7434 28.4838 26.0684 29.9263 26.3822L30.2775 26.4134C31.3935 26.4603 32.507 26.2729 33.5463 25.8634C35.3038 25.0484 36.345 23.6859 34.6125 24.0446" fill="#336791"/>
<path id="Vector_3" d="M17.3525 13.5172C17.0657 13.4568 16.7669 13.5012 16.51 13.6422C16.4765 13.6663 16.4482 13.6968 16.4268 13.732C16.4053 13.7672 16.3911 13.8064 16.385 13.8472C16.385 13.9913 16.4369 14.1307 16.5312 14.2397C16.699 14.47 16.9494 14.6264 17.23 14.6759C17.2673 14.6811 17.3049 14.6836 17.3425 14.6834C17.5282 14.6858 17.7102 14.6311 17.8638 14.5267C18.0174 14.4223 18.1352 14.2732 18.2012 14.0997C18.245 13.7897 17.7937 13.5822 17.3562 13.5209M29.1587 13.5309C29.125 13.2872 28.6912 13.2184 28.2837 13.2809C27.8762 13.3434 27.475 13.5234 27.5087 13.7672C27.5723 13.9201 27.68 14.0506 27.818 14.1421C27.956 14.2336 28.1182 14.2819 28.2837 14.2809C28.3185 14.2809 28.3531 14.2783 28.3875 14.2734C28.6043 14.2353 28.8024 14.1268 28.9512 13.9647C29.0757 13.8554 29.1517 13.7012 29.1625 13.5359" fill="white"/>
<path id="Vector_4" d="M35.9263 23.9522C35.775 23.4959 35.29 23.3497 34.4838 23.5159C32.09 24.0159 31.2338 23.6672 30.9513 23.4609C32.8468 20.551 34.2698 17.3595 35.1675 14.0047C35.5308 12.6776 35.7405 11.3133 35.7925 9.93841C35.8888 8.97671 35.6652 8.01008 35.1563 7.18841C34.2553 6.05459 33.1034 5.14547 31.7913 4.53268C30.4792 3.91989 29.0427 3.62018 27.595 3.65716C26.1079 3.63389 24.628 3.86688 23.22 4.34591C22.4147 4.14721 21.5894 4.04111 20.76 4.02966C19.2679 3.9641 17.793 4.37043 16.545 5.19091C15.4341 4.78475 14.2873 4.48425 13.12 4.29341C10.8885 3.7534 8.53412 4.11496 6.5675 5.29966C4.6925 6.62966 3.8175 9.00716 3.99125 12.3659C4.3196 15.0578 4.89408 17.7139 5.7075 20.3009C7.045 24.6822 8.49875 27.1634 10.0288 27.6759C10.2265 27.7425 10.4338 27.7767 10.6425 27.7772C11.0309 27.7531 11.4087 27.6409 11.7472 27.449C12.0858 27.2571 12.3761 26.9906 12.5963 26.6697C13.4646 25.628 14.3625 24.6122 15.29 23.6222C15.8863 23.9449 16.5498 24.1234 17.2275 24.1434V24.1959C17.1108 24.3342 16.9971 24.4751 16.8863 24.6184C16.4175 25.2122 16.3213 25.3359 14.8138 25.6472C14.385 25.7359 13.2463 25.9709 13.23 26.7722C13.2125 27.6472 14.5763 28.0109 14.73 28.0497C15.2402 28.1809 15.7645 28.2489 16.2913 28.2522C17.4433 28.2734 18.5604 27.8561 19.4163 27.0847C19.2884 29.4635 19.4483 31.8491 19.8925 34.1897C20.0977 34.939 20.5419 35.6008 21.1576 36.0746C21.7733 36.5484 22.5269 36.8082 23.3038 36.8147C23.6892 36.8135 24.0734 36.7716 24.45 36.6897C25.4783 36.6009 26.4411 36.1474 27.1645 35.4112C27.8879 34.6749 28.3243 33.7044 28.395 32.6747C28.6163 31.3922 28.9963 28.3309 29.175 26.6884C29.6267 26.8126 30.0941 26.8703 30.5625 26.8597C31.6412 26.8674 32.711 26.6636 33.7113 26.2597C34.6013 25.8459 36.2113 24.8334 35.915 23.9522H35.9263ZM30.0638 12.8534C30.0477 13.3175 29.9993 13.7799 29.9188 14.2372C29.8258 14.7745 29.7674 15.3173 29.7438 15.8622C29.7395 16.4769 29.7813 17.0911 29.8688 17.6997C30.1388 18.9452 30.0393 20.2424 29.5825 21.4322C29.4855 21.2601 29.3991 21.0823 29.3238 20.8997C29.2513 20.7234 29.0925 20.4397 28.875 20.0484C28.025 18.5234 26.0325 14.9509 27.0525 13.4934C27.3563 13.0597 28.1275 12.6184 30.0625 12.8534H30.0638ZM27.7175 4.64216C28.997 4.61601 30.2651 4.88711 31.4221 5.43413C32.579 5.98116 33.5933 6.7892 34.385 7.79466C35.6038 9.35091 34.26 16.4347 30.3787 22.5447L30.2613 22.3959L30.2125 22.3347C30.9836 20.8776 31.2079 19.1927 30.845 17.5847C30.7614 17.0252 30.7197 16.4603 30.72 15.8947C30.7427 15.3892 30.7973 14.8857 30.8838 14.3872C30.9962 13.7716 31.0477 13.1465 31.0375 12.5209C31.0579 12.435 31.0634 12.3462 31.0538 12.2584C30.6396 10.5846 29.8186 9.03887 28.6638 7.75841C27.626 6.5356 26.3282 5.56016 24.865 4.90341C25.802 4.70803 26.758 4.6183 27.715 4.63591L27.7175 4.64216ZM11.8488 26.0459C11.065 26.9884 10.5225 26.8084 10.3488 26.7484C9.18875 26.3609 7.84125 23.9084 6.655 20.0184C5.86735 17.5075 5.30677 14.9309 4.98 12.3197C4.83 9.31966 5.5575 7.22716 7.1425 6.10216C9.72125 4.27341 13.9625 5.36841 15.6663 5.92341C15.6413 5.94716 15.6163 5.96966 15.5925 5.99466C12.7963 8.81841 12.8625 13.6434 12.87 13.9384C12.87 14.0522 12.8788 14.2134 12.8925 14.4384C12.995 15.7826 12.9611 17.1336 12.7913 18.4709C12.675 19.2366 12.7347 20.0187 12.9658 20.7579C13.1969 21.4971 13.5933 22.174 14.125 22.7372C14.2358 22.8522 14.3517 22.9613 14.4725 23.0647C13.5693 24.0332 12.694 25.0274 11.8475 26.0459H11.8488ZM14.8363 22.0584C14.4052 21.6027 14.0837 21.0546 13.8964 20.4559C13.709 19.8572 13.6606 19.2236 13.755 18.6034C13.9342 17.202 13.9706 15.786 13.8638 14.3772C13.8571 14.276 13.8513 14.1747 13.8463 14.0734C14.8933 13.2842 16.1928 12.905 17.5 13.0072C17.8008 13.0753 18.0728 13.2354 18.2785 13.4652C18.4841 13.6951 18.6131 13.9832 18.6475 14.2897C19.455 18.0259 18.7538 19.5822 18.1913 20.8334C18.075 21.0909 17.965 21.3334 17.8725 21.5834L17.8 21.7784C17.6204 22.2313 17.4668 22.6942 17.34 23.1647C16.8701 23.158 16.4063 23.0563 15.9767 22.8658C15.5471 22.6752 15.1604 22.3997 14.84 22.0559L14.8363 22.0584ZM14.9775 27.0959C14.7456 27.0388 14.5247 26.9438 14.3238 26.8147C14.5472 26.7192 14.7808 26.6496 15.02 26.6072C16.7925 26.2422 17.0663 25.9822 17.665 25.2259C17.8025 25.0522 17.9575 24.8509 18.1725 24.6147C18.4925 24.2559 18.64 24.3172 18.905 24.4272C19.0307 24.4954 19.1409 24.589 19.2287 24.7019C19.3164 24.8149 19.3799 24.9447 19.415 25.0834C19.4499 25.1841 19.4624 25.2912 19.4516 25.3972C19.4408 25.5032 19.407 25.6056 19.3525 25.6972C18.8679 26.3663 18.1822 26.863 17.3954 27.1149C16.6085 27.3667 15.7618 27.3605 14.9788 27.0972L14.9775 27.0959ZM24.2575 35.7284C23.9067 35.8504 23.5341 35.897 23.1641 35.8652C22.794 35.8334 22.4349 35.7239 22.11 35.5439C21.7851 35.3639 21.5019 35.1174 21.2787 34.8205C21.0556 34.5236 20.8976 34.183 20.815 33.8209C20.3748 30.988 20.2491 28.1152 20.44 25.2547C20.4413 25.2022 20.4341 25.1499 20.4188 25.0997C20.4056 25.0025 20.3856 24.9064 20.3588 24.8122C20.2847 24.531 20.1498 24.2695 19.9636 24.0462C19.7775 23.8228 19.5445 23.6431 19.2813 23.5197C18.9744 23.3675 18.6251 23.3234 18.29 23.3947C18.4084 22.9612 18.5512 22.5346 18.7175 22.1172L18.79 21.9209C18.8725 21.6997 18.975 21.4709 19.0838 21.2284C19.6725 19.9197 20.48 18.1259 19.6038 14.0759C19.5483 13.7314 19.4229 13.4019 19.2352 13.1078C19.0475 12.8136 18.8016 12.561 18.5125 12.3655C18.2235 12.17 17.8974 12.0358 17.5545 11.9712C17.2116 11.9066 16.8591 11.9128 16.5188 11.9897C15.6954 12.0965 14.8971 12.3465 14.16 12.7284C14.0625 12.7784 13.9725 12.8259 13.89 12.8722C13.9845 10.6009 14.8275 8.42458 16.2875 6.68216C16.8739 6.10827 17.5738 5.66326 18.3423 5.37567C19.1108 5.08808 19.9309 4.96427 20.75 5.01216C22.1338 5.02418 23.4981 5.33969 24.7467 5.93645C25.9953 6.5332 27.0977 7.39666 27.9763 8.46591C28.8336 9.46707 29.5035 10.6146 29.9538 11.8534C28.125 11.6672 26.8813 12.0284 26.2513 12.9297C24.8763 14.8897 27.0013 18.6947 28.0213 20.5234C28.2088 20.8584 28.37 21.1484 28.42 21.2734C28.6894 21.9022 29.0522 22.4868 29.4963 23.0072C29.5925 23.1322 29.6863 23.2434 29.7563 23.3459C29.2025 23.5059 28.2075 23.8747 28.2988 25.7209C28.2263 26.6459 27.7063 30.9772 27.4412 32.5084C27.0925 34.5297 26.3488 35.2834 24.2563 35.7322L24.2575 35.7284ZM33.31 25.3684C32.5405 25.6737 31.7237 25.8429 30.8962 25.8684C30.3457 25.9495 29.7834 25.8773 29.2713 25.6597C29.215 24.5109 29.6463 24.3909 30.0963 24.2634C30.1675 24.2434 30.2363 24.2234 30.3038 24.2009C30.3479 24.2365 30.3938 24.2699 30.4413 24.3009C31.24 24.8284 32.6663 24.8847 34.6788 24.4697H34.7013C34.2853 24.8395 33.8147 25.1431 33.3063 25.3697L33.31 25.3684Z" fill="white"/>
</g>
</svg>
