<svg width="40" height="25" viewBox="0 0 40 25" fill="none" xmlns="http://www.w3.org/2000/svg">
<path id="Vector" d="M20 0.228394C14.6667 0.228394 11.3333 2.89511 10 8.22839C12 5.56168 14.3333 4.56167 17 5.22839C18.5214 5.60871 19.6089 6.71261 20.8127 7.93433C22.7736 9.9248 25.043 12.2284 30 12.2284C35.3333 12.2284 38.6667 9.56168 40 4.22839C38 6.89511 35.6667 7.89511 33 7.22839C31.4786 6.84808 30.3911 5.74417 29.1873 4.52246C27.2264 2.53199 24.957 0.228394 20 0.228394ZM10 12.2284C4.66672 12.2284 1.33328 14.8951 0 20.2284C2 17.5617 4.33328 16.5617 7 17.2284C8.52141 17.6087 9.60891 18.7126 10.8127 19.9343C12.7736 21.9248 15.043 24.2284 20 24.2284C25.3333 24.2284 28.6667 21.5617 30 16.2284C28 18.8951 25.6667 19.8951 23 19.2284C21.4786 18.8481 20.3911 17.7442 19.1873 16.5225C17.2264 14.532 14.957 12.2284 10 12.2284Z" fill="url(#paint0_linear_404_2274)"/>
<defs>
<linearGradient id="paint0_linear_404_2274" x1="-1.1112" y1="7.90839" x2="33.4353" y2="27.8273" gradientUnits="userSpaceOnUse">
<stop stop-color="#2298BD"/>
<stop offset="1" stop-color="#0ED7B5"/>
</linearGradient>
</defs>
</svg>
