<svg width="40" height="41" viewBox="0 0 40 41" fill="none" xmlns="http://www.w3.org/2000/svg">
<path d="M35.86 2.72839H4.14C3.23425 2.72839 2.5 3.46265 2.5 4.36839V36.0884C2.5 36.9941 3.23425 37.7284 4.14 37.7284H35.86C36.7657 37.7284 37.5 36.9941 37.5 36.0884V4.36839C37.5 3.46265 36.7657 2.72839 35.86 2.72839Z" fill="#3178C6"/>
<path fill-rule="evenodd" clip-rule="evenodd" d="M22.8063 29.9271V33.7621C23.503 34.1061 24.2456 34.3481 25.0113 34.4809C25.896 34.6442 26.7941 34.7246 27.6938 34.7209C28.5706 34.7251 29.4455 34.6367 30.3038 34.4571C31.0744 34.3014 31.8096 34.0048 32.4725 33.5821C33.0879 33.1849 33.5951 32.6411 33.9488 31.9996C34.582 30.6713 34.6656 29.1467 34.1812 27.7571C33.9769 27.2375 33.6723 26.7631 33.285 26.3609C32.8692 25.9332 32.3969 25.5644 31.8813 25.2646C31.2876 24.9169 30.6707 24.6104 30.035 24.3471C29.535 24.1396 29.085 23.938 28.685 23.7421C28.3297 23.572 27.9897 23.3717 27.6688 23.1434C27.4174 22.9672 27.199 22.748 27.0238 22.4959C26.8723 22.267 26.7935 21.9978 26.7975 21.7234C26.7942 21.4708 26.8645 21.2228 27 21.0096C27.1471 20.7866 27.3434 20.6001 27.5738 20.4646C27.8553 20.2989 28.1617 20.1794 28.4813 20.1109C28.8735 20.0238 29.2745 19.9818 29.6763 19.9859C30.0142 19.9871 30.3516 20.0113 30.6863 20.0584C31.0476 20.1073 31.4051 20.1812 31.7563 20.2796C32.1134 20.3786 32.4627 20.504 32.8013 20.6546C33.1298 20.8011 33.4441 20.9777 33.74 21.1821V17.6034C33.1239 17.3703 32.485 17.2027 31.8337 17.1034C31.0474 16.989 30.2534 16.9351 29.4587 16.9421C28.5901 16.9375 27.7241 17.0361 26.8788 17.2359C26.1147 17.4105 25.3882 17.7208 24.7338 18.1521C24.1258 18.5571 23.6239 19.1019 23.27 19.7409C22.895 20.4505 22.7094 21.2448 22.7313 22.0471C22.7036 23.1081 23.053 24.1446 23.7175 24.9721C24.5327 25.8897 25.5607 26.5932 26.7113 27.0209C27.2362 27.2376 27.7258 27.4496 28.18 27.6571C28.5898 27.8395 28.9836 28.0556 29.3575 28.3034C29.6591 28.4996 29.9239 28.7471 30.14 29.0346C30.33 29.2955 30.4308 29.6107 30.4275 29.9334C30.4292 30.1752 30.3671 30.4132 30.2475 30.6234C30.1146 30.8492 29.9278 31.0386 29.7038 31.1746C29.4235 31.3455 29.1168 31.4689 28.7963 31.5396C28.3787 31.633 27.9516 31.6771 27.5238 31.6709C26.6841 31.6694 25.8512 31.5213 25.0625 31.2334C24.2385 30.9361 23.4744 30.4937 22.8063 29.9271ZM16.3637 20.3796H21.3638V17.2209H7.4225V20.3796H12.4V34.4471H16.3637V20.3796Z" fill="white"/>
</svg>
