<svg width="25" height="26" viewBox="0 0 25 26" fill="none" xmlns="http://www.w3.org/2000/svg">
<g id="GitHub" clip-path="url(#clip0_404_2177)">
<path id="Vector" fill-rule="evenodd" clip-rule="evenodd" d="M12.5 0.228394C5.59375 0.228394 0 5.82214 0 12.7284C0 18.2596 3.57812 22.9315 8.54688 24.5878C9.17188 24.6971 9.40625 24.3221 9.40625 23.994C9.40625 23.6971 9.39062 22.7128 9.39062 21.6659C6.25 22.244 5.4375 20.9003 5.1875 20.1971C5.04688 19.8378 4.4375 18.7284 3.90625 18.4315C3.46875 18.1971 2.84375 17.619 3.89062 17.6034C4.875 17.5878 5.57812 18.5096 5.8125 18.8846C6.9375 20.7753 8.73438 20.244 9.45312 19.9159C9.5625 19.1034 9.89062 18.5565 10.25 18.244C7.46875 17.9315 4.5625 16.8534 4.5625 12.0721C4.5625 10.7128 5.04688 9.58777 5.84375 8.71277C5.71875 8.40027 5.28125 7.11902 5.96875 5.40027C5.96875 5.40027 7.01562 5.07214 9.40625 6.68152C10.4062 6.40027 11.4688 6.25964 12.5313 6.25964C13.5938 6.25964 14.6563 6.40027 15.6563 6.68152C18.0469 5.05652 19.0938 5.40027 19.0938 5.40027C19.7812 7.11902 19.3438 8.40027 19.2188 8.71277C20.0156 9.58777 20.5 10.6971 20.5 12.0721C20.5 16.869 17.5781 17.9315 14.7969 18.244C15.25 18.6346 15.6406 19.3846 15.6406 20.5565C15.6406 22.2284 15.625 23.5721 15.625 23.994C15.625 24.3221 15.8594 24.7128 16.4844 24.5878C18.9659 23.75 21.1221 22.1552 22.6497 20.0278C24.1773 17.9004 24.9993 15.3475 25 12.7284C25 5.82214 19.4062 0.228394 12.5 0.228394Z" fill="white"/>
</g>
<defs>
<clipPath id="clip0_404_2177">
<rect width="25" height="25" fill="white" transform="translate(0 0.228394)"/>
</clipPath>
</defs>
</svg>
