<svg width="25" height="26" viewBox="0 0 25 26" fill="none" xmlns="http://www.w3.org/2000/svg">
<g id="Linkedin">
<path id="Vector" d="M23.2143 0.228394H1.78013C0.797991 0.228394 0 1.03755 0 2.03085V23.4259C0 24.4192 0.797991 25.2284 1.78013 25.2284H23.2143C24.1964 25.2284 25 24.4192 25 23.4259V2.03085C25 1.03755 24.1964 0.228394 23.2143 0.228394ZM7.5558 21.657H3.85045V9.72616H7.56138V21.657H7.5558ZM5.70312 8.0967C4.51451 8.0967 3.55469 7.1313 3.55469 5.94826C3.55469 4.76522 4.51451 3.79982 5.70312 3.79982C6.88616 3.79982 7.85156 4.76522 7.85156 5.94826C7.85156 7.13688 6.89174 8.0967 5.70312 8.0967ZM21.4453 21.657H17.74V15.8534C17.74 14.4695 17.7121 12.6893 15.8147 12.6893C13.8839 12.6893 13.5882 14.196 13.5882 15.7529V21.657H9.88281V9.72616H13.4375V11.3556H13.4877C13.9844 10.4181 15.1953 9.4304 16.9978 9.4304C20.7478 9.4304 21.4453 11.9025 21.4453 15.1168V21.657Z" fill="white"/>
</g>
</svg>
